<svg width="82" height="72" viewBox="0 0 82 72" fill="none" xmlns="http://www.w3.org/2000/svg">
<g filter="url(#filter0_d_1_3)">
<rect x="4" width="74" height="64" rx="5" fill="#C5E8F7"/>
<g filter="url(#filter1_d_1_3)">
<path d="M37.0518 28.6977C37.8232 28.6977 38.5898 28.7514 39.3516 28.8588C40.123 28.9565 40.8604 29.0785 41.5635 29.225C42.2764 29.3617 42.9502 29.4985 43.585 29.6352C44.2197 29.7719 44.791 29.8696 45.2988 29.9282C45.1816 30.2797 45.123 30.8998 45.123 31.7885C45.123 33.517 45.3818 35.016 45.8994 36.2856C45.8408 36.4614 45.6602 36.5688 45.3574 36.6078L44.7275 35.2602C44.415 34.5864 44.0391 33.9223 43.5996 33.268C43.1602 32.6039 42.6328 32.0131 42.0176 31.4955C41.4023 30.9682 40.6846 30.5434 39.8643 30.2211C39.0537 29.8989 38.1162 29.7377 37.0518 29.7377C36.1338 29.7377 35.3184 29.8891 34.6055 30.1918C33.8926 30.4946 33.2676 30.9047 32.7305 31.4223C32.1934 31.9301 31.7393 32.5258 31.3682 33.2094C30.9971 33.8832 30.6943 34.601 30.46 35.3627C30.2354 36.1244 30.0693 36.9057 29.9619 37.7065C29.8643 38.5073 29.8154 39.2836 29.8154 40.0356C29.8154 41.2856 29.9766 42.4819 30.2988 43.6244C30.6309 44.767 31.1436 45.7778 31.8369 46.6567C32.5303 47.5258 33.4092 48.2192 34.4736 48.7367C35.5479 49.2543 36.8271 49.5131 38.3115 49.5131C41.1533 49.5131 43.3018 48.6244 44.7568 46.8471C44.9131 46.8471 45.04 46.891 45.1377 46.9789C45.2451 47.0668 45.2988 47.1742 45.2988 47.3012C44.8301 47.9946 44.2588 48.5951 43.585 49.103C42.9209 49.6108 42.2129 50.0307 41.4609 50.3627C40.709 50.685 39.9473 50.9242 39.1758 51.0805C38.4141 51.2367 37.7061 51.3149 37.0518 51.3149C36.3389 51.3149 35.5674 51.2367 34.7373 51.0805C33.917 50.934 33.0918 50.685 32.2617 50.3334C31.4414 49.9819 30.6504 49.5229 29.8887 48.9565C29.1367 48.3803 28.4678 47.6772 27.8818 46.8471C27.2959 46.0073 26.8271 45.0258 26.4756 43.9028C26.124 42.7797 25.9482 41.4907 25.9482 40.0356C25.9482 38.5707 26.124 37.2768 26.4756 36.1537C26.8271 35.0209 27.2959 34.0346 27.8818 33.1948C28.4775 32.3549 29.1562 31.6518 29.918 31.0854C30.6895 30.5092 31.4854 30.0453 32.3057 29.6938C33.126 29.3325 33.9463 29.0785 34.7666 28.9321C35.5869 28.7758 36.3486 28.6977 37.0518 28.6977ZM54.835 37.3989C55.8018 37.3989 56.6709 37.5698 57.4424 37.9116C58.2236 38.2533 58.8877 38.727 59.4346 39.3325C59.9814 39.9379 60.4014 40.6655 60.6943 41.5151C60.9873 42.3549 61.1338 43.2729 61.1338 44.269C61.1338 46.3002 60.5625 47.9506 59.4199 49.2201C58.2871 50.4994 56.7588 51.1391 54.835 51.1391C53.8779 51.1391 53.0088 50.9731 52.2275 50.641C51.4561 50.2992 50.7969 49.8256 50.25 49.2201C49.7031 48.6049 49.2783 47.8774 48.9756 47.0375C48.6826 46.1977 48.5361 45.2748 48.5361 44.269C48.5361 43.2729 48.6826 42.3549 48.9756 41.5151C49.2686 40.6655 49.6836 39.9379 50.2207 39.3325C50.7676 38.727 51.4316 38.2533 52.2129 37.9116C52.9941 37.5698 53.8682 37.3989 54.835 37.3989ZM54.835 38.351C53.8389 38.351 53.043 38.8344 52.4473 39.8012C51.8613 40.768 51.5684 42.2573 51.5684 44.269C51.5684 46.2807 51.8613 47.77 52.4473 48.7367C53.043 49.6938 53.8389 50.1723 54.835 50.1723C55.8311 50.1723 56.6221 49.6889 57.208 48.7221C57.8037 47.7553 58.1016 46.2709 58.1016 44.269C58.1016 43.2631 58.0234 42.3891 57.8672 41.6469C57.7109 40.9047 57.4912 40.2895 57.208 39.8012C56.9248 39.3129 56.583 38.9516 56.1826 38.7172C55.7822 38.4731 55.333 38.351 54.835 38.351Z" fill="#0A0A0A"/>
<path d="M39.3516 28.8588L39.2678 29.453L39.2762 29.4541L39.3516 28.8588ZM41.5635 29.225L41.4411 29.8125L41.4505 29.8143L41.5635 29.225ZM45.2988 29.9282L45.868 30.1179L46.1017 29.4168L45.3676 29.3321L45.2988 29.9282ZM45.8994 36.2856L46.4686 36.4753L46.5388 36.2647L46.455 36.0591L45.8994 36.2856ZM45.3574 36.6078L44.8139 36.8619L44.9995 37.259L45.4342 37.2029L45.3574 36.6078ZM44.7275 35.2602L44.1832 35.5126L44.184 35.5142L44.7275 35.2602ZM43.5996 33.268L43.0992 33.5991L43.1015 33.6025L43.5996 33.268ZM42.0176 31.4955L41.6271 31.9511L41.6313 31.9547L42.0176 31.4955ZM39.8643 30.2211L39.6426 30.7787L39.6449 30.7796L39.8643 30.2211ZM32.7305 31.4223L33.1427 31.8583L33.1468 31.8543L32.7305 31.4223ZM31.3682 33.2094L31.8937 33.4989L31.8955 33.4957L31.3682 33.2094ZM30.46 35.3627L29.8865 35.1863L29.8845 35.193L30.46 35.3627ZM29.9619 37.7065L29.3672 37.6267L29.3663 37.6338L29.9619 37.7065ZM30.2988 43.6244L29.7213 43.7873L29.7227 43.7919L30.2988 43.6244ZM31.8369 46.6567L31.3658 47.0283L31.3679 47.0308L31.8369 46.6567ZM34.4736 48.7367L34.2113 49.2763L34.2132 49.2773L34.4736 48.7367ZM44.7568 46.8471V46.2471H44.4726L44.2926 46.467L44.7568 46.8471ZM45.1377 46.9789L44.7363 47.4249L44.7468 47.4344L44.7578 47.4433L45.1377 46.9789ZM45.2988 47.3012L45.7959 47.6372L45.8988 47.485V47.3012H45.2988ZM43.585 49.103L43.2238 48.6238L43.2205 48.6263L43.585 49.103ZM41.4609 50.3627L41.6973 50.9142L41.7033 50.9116L41.4609 50.3627ZM39.1758 51.0805L39.0567 50.4924L39.0552 50.4927L39.1758 51.0805ZM34.7373 51.0805L34.8483 50.4908L34.8428 50.4898L34.7373 51.0805ZM32.2617 50.3334L32.0254 50.8849L32.0277 50.8859L32.2617 50.3334ZM29.8887 48.9565L29.5237 49.4328L29.5307 49.438L29.8887 48.9565ZM27.8818 46.8471L27.3898 47.1904L27.3917 47.1931L27.8818 46.8471ZM26.4756 36.1537L27.0482 36.333L27.0486 36.3316L26.4756 36.1537ZM27.8818 33.1948L27.3924 32.8476L27.3898 32.8514L27.8818 33.1948ZM29.918 31.0854L30.276 31.5669L30.277 31.5661L29.918 31.0854ZM32.3057 29.6938L32.542 30.2453L32.5475 30.2429L32.3057 29.6938ZM34.7666 28.9321L34.8721 29.5228L34.8789 29.5215L34.7666 28.9321ZM37.0518 29.2977C37.7953 29.2977 38.5339 29.3494 39.2678 29.4529L39.4353 28.2647C38.6458 28.1533 37.8512 28.0977 37.0518 28.0977V29.2977ZM39.2762 29.4541C40.0332 29.5499 40.7548 29.6694 41.4411 29.8124L41.6858 28.6376C40.9659 28.4877 40.2129 28.3631 39.4269 28.2636L39.2762 29.4541ZM41.4505 29.8143C42.1594 29.9503 42.8288 30.0861 43.4586 30.2217L43.7113 29.0486C43.0716 28.9109 42.3933 28.7732 41.6765 28.6358L41.4505 29.8143ZM43.4586 30.2217C44.1076 30.3615 44.6986 30.4629 45.2301 30.5242L45.3676 29.3321C44.8835 29.2762 44.3318 29.1823 43.7113 29.0486L43.4586 30.2217ZM44.7296 29.7384C44.5785 30.1919 44.523 30.9004 44.523 31.7885H45.723C45.723 30.8992 45.7848 30.3676 45.868 30.1179L44.7296 29.7384ZM44.523 31.7885C44.523 33.5752 44.7904 35.1546 45.3438 36.5121L46.455 36.0591C45.9733 34.8775 45.723 33.4588 45.723 31.7885H44.523ZM45.3302 36.0958C45.3397 36.0675 45.355 36.0401 45.3742 36.0174C45.3928 35.9955 45.4087 35.985 45.4133 35.9823C45.4172 35.9799 45.4106 35.9845 45.3876 35.9915C45.3647 35.9985 45.3299 36.0064 45.2806 36.0128L45.4342 37.2029C45.8059 37.1549 46.2974 36.9888 46.4686 36.4753L45.3302 36.0958ZM45.901 36.3538L45.2711 35.0061L44.184 35.5142L44.8139 36.8619L45.901 36.3538ZM45.2719 35.0078C44.9453 34.3037 44.5536 33.6123 44.0977 32.9335L43.1015 33.6025C43.5245 34.2323 43.8847 34.869 44.1832 35.5126L45.2719 35.0078ZM44.1 32.9369C43.6285 32.2244 43.0626 31.5906 42.4038 31.0364L41.6313 31.9547C42.203 32.4356 42.6918 32.9834 43.0993 33.5991L44.1 32.9369ZM42.4081 31.04C41.7377 30.4654 40.9609 30.0073 40.0836 29.6627L39.6449 30.7796C40.4083 31.0795 41.067 31.471 41.6271 31.9511L42.4081 31.04ZM40.0859 29.6636C39.1912 29.3078 38.1759 29.1377 37.0518 29.1377V30.3377C38.0565 30.3377 38.9162 30.4899 39.6426 30.7787L40.0859 29.6636ZM37.0518 29.1377C36.0679 29.1377 35.1704 29.3001 34.3709 29.6396L34.84 30.7441C35.4663 30.4781 36.1997 30.3377 37.0518 30.3377V29.1377ZM34.3709 29.6396C33.5932 29.9698 32.906 30.4199 32.3141 30.9902L33.1468 31.8543C33.6291 31.3895 34.1919 31.0193 34.84 30.7441L34.3709 29.6396ZM32.3183 30.9863C31.7328 31.5399 31.2406 32.1868 30.8409 32.9231L31.8955 33.4957C32.2379 32.8648 32.654 32.3203 33.1427 31.8583L32.3183 30.9863ZM30.8426 32.92C30.451 33.631 30.1325 34.3868 29.8865 35.1863L31.0334 35.5392C31.2562 34.8152 31.5431 34.1355 31.8937 33.4988L30.8426 32.92ZM29.8845 35.193C29.651 35.9847 29.4787 36.796 29.3672 37.6267L30.5566 37.7862C30.66 37.0154 30.8197 36.2642 31.0355 35.5324L29.8845 35.193ZM29.3663 37.6338C29.2659 38.457 29.2154 39.2577 29.2154 40.0356H30.4154C30.4154 39.3096 30.4626 38.5575 30.5575 37.7791L29.3663 37.6338ZM29.2154 40.0356C29.2154 41.3377 29.3834 42.589 29.7214 43.7873L30.8763 43.4616C30.5698 42.3747 30.4154 41.2334 30.4154 40.0356H29.2154ZM29.7227 43.7919C30.0749 45.0039 30.6217 46.085 31.3659 47.0283L32.308 46.2851C31.6654 45.4705 31.1868 44.5301 30.875 43.457L29.7227 43.7919ZM31.3679 47.0308C32.1205 47.9743 33.0718 48.7223 34.2113 49.2763L34.736 48.1972C33.7466 47.7161 32.94 47.0773 32.3059 46.2825L31.3679 47.0308ZM34.2132 49.2773C35.3861 49.8424 36.7585 50.1131 38.3115 50.1131V48.9131C36.8958 48.9131 35.7096 48.6663 34.7341 48.1962L34.2132 49.2773ZM38.3115 50.1131C41.2865 50.1131 43.6254 49.1763 45.2211 47.2272L44.2926 46.467C42.9781 48.0726 41.0202 48.9131 38.3115 48.9131V50.1131ZM44.7568 47.4471C44.7788 47.4471 44.782 47.4502 44.773 47.447C44.7685 47.4455 44.7623 47.4429 44.7552 47.4387C44.7481 47.4345 44.7417 47.4298 44.7363 47.4249L45.5391 46.533C45.311 46.3277 45.0317 46.2471 44.7568 46.2471V47.4471ZM44.7578 47.4433C44.7561 47.442 44.7383 47.4266 44.7219 47.3937C44.7047 47.3594 44.6988 47.3254 44.6988 47.3012H45.8988C45.8988 46.976 45.7496 46.7043 45.5176 46.5146L44.7578 47.4433ZM44.8018 46.9652C44.3704 47.6032 43.8452 48.1555 43.2239 48.6238L43.9461 49.5821C44.6724 49.0348 45.2897 48.3859 45.7959 47.6372L44.8018 46.9652ZM43.2205 48.6263C42.5935 49.1058 41.9264 49.5013 41.2186 49.8139L41.7033 50.9116C42.4994 50.5601 43.2483 50.1157 43.9494 49.5796L43.2205 48.6263ZM41.2246 49.8112C40.5089 50.118 39.7864 50.3446 39.0567 50.4924L39.2949 51.6686C40.1081 51.5038 40.9091 51.252 41.6973 50.9142L41.2246 49.8112ZM39.0552 50.4927C38.326 50.6423 37.6588 50.7149 37.0518 50.7149V51.9149C37.7533 51.9149 38.5021 51.8312 39.2963 51.6683L39.0552 50.4927ZM37.0518 50.7149C36.3822 50.7149 35.6483 50.6414 34.8483 50.4909L34.6263 51.6701C35.4865 51.8321 36.2956 51.9149 37.0518 51.9149V50.7149ZM34.8428 50.4898C34.07 50.3519 33.2879 50.1164 32.4957 49.7809L32.0277 50.8859C32.8957 51.2535 33.764 51.5162 34.6318 51.6712L34.8428 50.4898ZM32.4981 49.7819C31.7236 49.45 30.9731 49.0152 30.2467 48.475L29.5307 49.438C30.3277 50.0306 31.1593 50.5137 32.0254 50.8849L32.4981 49.7819ZM30.2536 48.4802C29.5531 47.9435 28.9256 47.2853 28.372 46.5011L27.3917 47.1931C28.01 48.0691 28.7203 48.8171 29.5237 49.4327L30.2536 48.4802ZM28.3739 46.5038C27.8278 45.7211 27.3841 44.7966 27.0482 43.7235L25.903 44.082C26.2702 45.255 26.764 46.2935 27.3898 47.1904L28.3739 46.5038ZM27.0482 43.7235C26.7185 42.6703 26.5482 41.4436 26.5482 40.0356H25.3482C25.3482 41.5377 25.5296 42.8891 25.903 44.082L27.0482 43.7235ZM26.5482 40.0356C26.5482 38.6173 26.7186 37.3858 27.0482 36.333L25.903 35.9745C25.5295 37.1677 25.3482 38.5242 25.3482 40.0356H26.5482ZM27.0486 36.3316C27.3847 35.2486 27.8284 34.32 28.3739 33.5381L27.3898 32.8514C26.7634 33.7492 26.2696 34.7932 25.9025 35.9759L27.0486 36.3316ZM28.3712 33.5419C28.9335 32.7491 29.5689 32.0926 30.276 31.5669L29.5599 30.6039C28.7436 31.211 28.0215 31.9607 27.3924 32.8476L28.3712 33.5419ZM30.277 31.5661C31.0135 31.0161 31.7685 30.5768 32.542 30.2453L32.0693 29.1423C31.2022 29.5139 30.3654 30.0023 29.5589 30.6047L30.277 31.5661ZM32.5475 30.2429C33.3275 29.8993 34.1021 29.6602 34.8721 29.5227L34.6611 28.3414C33.7905 28.4969 32.9245 28.7656 32.0638 29.1447L32.5475 30.2429ZM34.8789 29.5215C35.6688 29.371 36.3925 29.2977 37.0518 29.2977V28.0977C36.3047 28.0977 35.505 28.1806 34.6543 28.3427L34.8789 29.5215ZM57.4424 37.9116L57.1993 38.4601L57.2019 38.4612L57.4424 37.9116ZM60.6943 41.5151L60.1271 41.7107L60.1278 41.7127L60.6943 41.5151ZM59.4199 49.2201L58.9739 48.8188L58.9707 48.8224L59.4199 49.2201ZM52.2275 50.641L51.9845 51.1897L51.9929 51.1932L52.2275 50.641ZM50.25 49.2201L49.8015 49.6188L49.8047 49.6223L50.25 49.2201ZM48.9756 47.0375L48.409 47.2352L48.4111 47.241L48.9756 47.0375ZM48.9756 41.5151L49.5421 41.7127L49.5428 41.7107L48.9756 41.5151ZM50.2207 39.3325L49.7754 38.9303L49.7719 38.9343L50.2207 39.3325ZM52.4473 39.8012L51.9364 39.4864L51.9341 39.4902L52.4473 39.8012ZM52.4473 48.7367L51.9341 49.0478L51.9379 49.0538L52.4473 48.7367ZM57.208 48.7221L56.6972 48.4073L56.6949 48.4111L57.208 48.7221ZM56.1826 38.7172L55.8702 39.2296L55.8795 39.235L56.1826 38.7172ZM54.835 37.9989C55.7302 37.9989 56.5148 38.1568 57.1993 38.4601L57.6854 37.363C56.827 36.9827 55.8733 36.7989 54.835 36.7989V37.9989ZM57.2019 38.4612C57.9088 38.7705 58.502 39.1951 58.9893 39.7346L59.8798 38.9303C59.2734 38.2588 58.5385 37.7362 57.6829 37.3619L57.2019 38.4612ZM58.9893 39.7346C59.4768 40.2743 59.8578 40.9296 60.1271 41.7107L61.2616 41.3195C60.9449 40.4013 60.4861 39.6015 59.8798 38.9303L58.9893 39.7346ZM60.1278 41.7127C60.3961 42.4819 60.5338 43.3322 60.5338 44.269H61.7338C61.7338 43.2136 61.5785 42.228 61.2609 41.3174L60.1278 41.7127ZM60.5338 44.269C60.5338 46.1816 59.9992 47.6796 58.9739 48.8188L59.8659 49.6215C61.1258 48.2216 61.7338 46.4188 61.7338 44.269H60.5338ZM58.9707 48.8224C57.9668 49.9561 56.6111 50.5391 54.835 50.5391V51.7391C56.9065 51.7391 58.6074 51.0428 59.8691 49.6179L58.9707 48.8224ZM54.835 50.5391C53.9483 50.5391 53.1604 50.3856 52.4622 50.0888L51.9929 51.1932C52.8572 51.5606 53.8075 51.7391 54.835 51.7391V50.5391ZM52.4706 50.0925C51.7733 49.7836 51.1838 49.3588 50.6953 48.818L49.8047 49.6223C50.41 50.2924 51.1388 50.8149 51.9845 51.1896L52.4706 50.0925ZM50.6984 48.8215C50.2064 48.268 49.8191 47.6082 49.54 46.8341L48.4111 47.241C48.7376 48.1466 49.1998 48.9418 49.8016 49.6188L50.6984 48.8215ZM49.5421 46.8399C49.274 46.0713 49.1361 45.2162 49.1361 44.269H47.9361C47.9361 45.3334 48.0912 46.3241 48.4091 47.2352L49.5421 46.8399ZM49.1361 44.269C49.1361 43.3322 49.2738 42.4819 49.5421 41.7127L48.4091 41.3174C48.0914 42.228 47.9361 43.2136 47.9361 44.269H49.1361ZM49.5428 41.7107C49.8129 40.9275 50.1903 40.2708 50.6695 39.7306L49.7719 38.9343C49.1768 39.605 48.7242 40.4035 48.4084 41.3195L49.5428 41.7107ZM50.666 39.7346C51.1532 39.1951 51.7465 38.7705 52.4534 38.4612L51.9724 37.3619C51.1168 37.7362 50.3819 38.2588 49.7754 38.9303L50.666 39.7346ZM52.4534 38.4612C53.1493 38.1568 53.9399 37.9989 54.835 37.9989V36.7989C53.7964 36.7989 52.839 36.9827 51.9724 37.3619L52.4534 38.4612ZM54.835 37.751C53.5983 37.751 52.6233 38.3718 51.9364 39.4865L52.9581 40.1159C53.4627 39.297 54.0795 38.951 54.835 38.951V37.751ZM51.9341 39.4902C51.2625 40.5985 50.9684 42.2216 50.9684 44.269H52.1684C52.1684 42.2929 52.4602 40.9375 52.9604 40.1122L51.9341 39.4902ZM50.9684 44.269C50.9684 46.3164 51.2625 47.9394 51.9341 49.0477L52.9604 48.4258C52.4602 47.6005 52.1684 46.245 52.1684 44.269H50.9684ZM51.9379 49.0538C52.626 50.1593 53.6012 50.7723 54.835 50.7723V49.5723C54.0766 49.5723 53.4599 49.2282 52.9566 48.4197L51.9379 49.0538ZM54.835 50.7723C56.0725 50.7723 57.0439 50.1505 57.7211 49.0331L56.6949 48.4111C56.2002 49.2273 55.5896 49.5723 54.835 49.5723V50.7723ZM57.7188 49.0368C58.4022 47.9278 58.7016 46.3083 58.7016 44.269H57.5016C57.5016 46.2336 57.2053 47.5828 56.6972 48.4074L57.7188 49.0368ZM58.7016 44.269C58.7016 43.2341 58.6214 42.3168 58.4543 41.5233L57.2801 41.7705C57.4255 42.4614 57.5016 43.2921 57.5016 44.269H58.7016ZM58.4543 41.5233C58.2891 40.7387 58.0511 40.0589 57.727 39.5002L56.689 40.1022C56.9313 40.5201 57.1327 41.0707 57.2801 41.7705L58.4543 41.5233ZM57.727 39.5002C57.403 38.9415 56.9931 38.4964 56.4857 38.1994L55.8795 39.235C56.1729 39.4068 56.4466 39.6843 56.689 40.1022L57.727 39.5002ZM56.495 38.2049C55.9946 37.8998 55.4361 37.751 54.835 37.751V38.951C55.2299 38.951 55.5699 39.0463 55.8703 39.2295L56.495 38.2049Z" fill="#139767"/>
</g>
<g filter="url(#filter2_d_1_3)">
<path d="M24.9141 7.77344C26.6641 7.83594 28.0234 7.86719 28.9922 7.86719C29.9609 7.86719 31.3203 7.83594 33.0703 7.77344C33.1016 7.89844 33.1172 7.98438 33.1172 8.03125C33.1172 8.11719 33.1016 8.21484 33.0703 8.32422C32.7109 8.35547 32.418 8.39062 32.1914 8.42969C31.9727 8.46094 31.6992 8.51562 31.3711 8.59375C31.0508 8.67188 30.8047 8.78516 30.6328 8.93359C30.4609 9.07422 30.3711 9.24609 30.3633 9.44922C30.2617 12.1055 30.2109 14.5781 30.2109 16.8672C30.2109 18.5391 30.2539 20.7148 30.3398 23.3945C30.3477 23.5977 30.4375 23.7734 30.6094 23.9219C30.7812 24.0625 31.0273 24.1719 31.3477 24.25C31.6758 24.3281 31.9492 24.3867 32.168 24.4258C32.3945 24.457 32.6875 24.4883 33.0469 24.5195C33.0781 24.6133 33.0938 24.7188 33.0938 24.8359C33.0938 24.8984 33.0781 24.9766 33.0469 25.0703C31.7188 25.0234 30.3594 25 28.9688 25C27.5625 25 26.2031 25.0234 24.8906 25.0703C24.8594 24.9766 24.8438 24.8984 24.8438 24.8359C24.8438 24.7031 24.8594 24.5977 24.8906 24.5195C25.125 24.4961 25.3125 24.4766 25.4531 24.4609C25.5938 24.4453 25.7852 24.418 26.0273 24.3789C26.2773 24.3398 26.4766 24.2969 26.625 24.25C26.7812 24.1953 26.9414 24.1289 27.1055 24.0508C27.2695 23.9727 27.3906 23.8789 27.4688 23.7695C27.5547 23.6602 27.5977 23.5352 27.5977 23.3945C27.6914 20.9492 27.7383 18.4844 27.7383 16C27.7383 13.4688 27.6992 11.2852 27.6211 9.44922C27.6133 9.24609 27.5234 9.07422 27.3516 8.93359C27.1797 8.78516 26.9297 8.67188 26.6016 8.59375C26.2812 8.51562 26.0078 8.46094 25.7812 8.42969C25.5625 8.39062 25.2734 8.35547 24.9141 8.32422C24.8828 8.18359 24.8672 8.08594 24.8672 8.03125C24.8672 7.95312 24.8828 7.86719 24.9141 7.77344ZM41.0625 24.5195C41.1094 24.6133 41.1328 24.7109 41.1328 24.8125C41.1328 24.8906 41.1094 24.9766 41.0625 25.0703C40.0312 25.0234 39.0312 25 38.0625 25C37.1094 25 36.1172 25.0234 35.0859 25.0703C35.0547 24.9453 35.0391 24.8594 35.0391 24.8125C35.0391 24.7734 35.0547 24.6758 35.0859 24.5195C35.3438 24.4883 35.5547 24.457 35.7188 24.4258C35.8828 24.3867 36.0859 24.3281 36.3281 24.25C36.5703 24.1719 36.7539 24.0625 36.8789 23.9219C37.0039 23.7734 37.0703 23.5977 37.0781 23.3945C37.1094 22.6211 37.125 21.6836 37.125 20.582C37.125 20.2148 37.1211 19.5898 37.1133 18.707C37.1055 17.8242 37.1016 17.0508 37.1016 16.3867C36.6562 16.1133 35.9062 15.9531 34.8516 15.9062C34.8203 15.7812 34.8047 15.6836 34.8047 15.6133C34.8047 15.5664 34.8203 15.4805 34.8516 15.3555C36.3672 15.1992 37.6875 14.8789 38.8125 14.3945C39.0078 14.4727 39.1445 14.5742 39.2227 14.6992V16.5508C39.9805 15.8867 40.707 15.3555 41.4023 14.957C42.0977 14.5508 42.8008 14.3477 43.5117 14.3477C44.4023 14.3477 45.0312 14.5977 45.3984 15.0977C45.7734 15.5977 45.9688 16.3789 45.9844 17.4414L46.1016 23.3945C46.1094 23.5977 46.168 23.7734 46.2773 23.9219C46.3945 24.0625 46.5586 24.1719 46.7695 24.25C46.9883 24.3281 47.168 24.3867 47.3086 24.4258C47.4492 24.457 47.6328 24.4883 47.8594 24.5195C47.8906 24.6758 47.9062 24.7812 47.9062 24.8359C47.9062 24.8984 47.8906 24.9766 47.8594 25.0703C46.8516 25.0234 45.9219 25 45.0703 25C44.2422 25 43.3242 25.0234 42.3164 25.0703C42.2852 24.9453 42.2695 24.8516 42.2695 24.7891C42.2695 24.7344 42.2852 24.6445 42.3164 24.5195C42.5195 24.4883 42.6875 24.457 42.8203 24.4258C42.9609 24.3867 43.1172 24.3281 43.2891 24.25C43.4688 24.1719 43.6016 24.0625 43.6875 23.9219C43.7812 23.7734 43.8281 23.5977 43.8281 23.3945L43.8516 17.8281C43.8516 16.4141 43.4258 15.707 42.5742 15.707C41.7773 15.707 40.6602 16.2383 39.2227 17.3008C39.2227 19.5742 39.2539 21.6055 39.3164 23.3945C39.3242 23.5977 39.3828 23.7734 39.4922 23.9219C39.6094 24.0625 39.7734 24.1719 39.9844 24.25C40.1953 24.3281 40.3711 24.3867 40.5117 24.4258C40.6523 24.457 40.8359 24.4883 41.0625 24.5195Z" fill="#0A0A0A"/>
<path d="M24.9141 7.77344L24.9319 7.27376L24.558 7.2604L24.4397 7.61532L24.9141 7.77344ZM33.0703 7.77344L33.5554 7.65217L33.4572 7.2593L33.0525 7.27376L33.0703 7.77344ZM33.0703 8.32422L33.1136 8.82234L33.4565 8.79252L33.5511 8.46158L33.0703 8.32422ZM32.1914 8.42969L32.2621 8.92466L32.2693 8.92364L32.2764 8.92242L32.1914 8.42969ZM31.3711 8.59375L31.2553 8.10734L31.2526 8.10799L31.3711 8.59375ZM30.6328 8.93359L30.9495 9.32071L30.9596 9.31201L30.6328 8.93359ZM30.3633 9.44922L29.8637 9.43L29.8636 9.43012L30.3633 9.44922ZM30.3398 23.3945L29.8401 23.4106L29.8402 23.4137L30.3398 23.3945ZM30.6094 23.9219L30.2824 24.3004L30.2928 24.3089L30.6094 23.9219ZM31.3477 24.25L31.2292 24.7358L31.2318 24.7364L31.3477 24.25ZM32.168 24.4258L32.0801 24.918L32.0898 24.9197L32.0997 24.9211L32.168 24.4258ZM33.0469 24.5195L33.5212 24.3614L33.4174 24.0499L33.0902 24.0214L33.0469 24.5195ZM33.0469 25.0703L33.0292 25.57L33.403 25.5832L33.5212 25.2284L33.0469 25.0703ZM24.8906 25.0703L24.4163 25.2284L24.5346 25.5833L24.9085 25.57L24.8906 25.0703ZM24.8906 24.5195L24.8409 24.022L24.539 24.0522L24.4264 24.3338L24.8906 24.5195ZM26.0273 24.3789L25.9502 23.8849L25.9477 23.8853L26.0273 24.3789ZM26.625 24.25L26.7756 24.7268L26.7829 24.7245L26.7902 24.7219L26.625 24.25ZM27.4688 23.7695L27.0756 23.4606L27.0685 23.4696L27.0619 23.4789L27.4688 23.7695ZM27.5977 23.3945L27.098 23.3754L27.0977 23.385V23.3945H27.5977ZM27.6211 9.44922L27.1215 9.46844L27.1215 9.47048L27.6211 9.44922ZM27.3516 8.93359L27.0246 9.31214L27.0349 9.32057L27.3516 8.93359ZM26.6016 8.59375L26.4831 9.07952L26.4858 9.08015L26.6016 8.59375ZM25.7812 8.42969L25.6934 8.9219L25.7031 8.92364L25.7129 8.925L25.7812 8.42969ZM24.9141 8.32422L24.426 8.43268L24.5055 8.79058L24.8707 8.82234L24.9141 8.32422ZM24.8962 8.27312C26.6482 8.33569 28.0146 8.36719 28.9922 8.36719V7.36719C28.0323 7.36719 26.6799 7.33618 24.9319 7.27376L24.8962 8.27312ZM28.9922 8.36719C29.9698 8.36719 31.3361 8.33569 33.0882 8.27312L33.0525 7.27376C31.3045 7.33618 29.9521 7.36719 28.9922 7.36719V8.36719ZM32.5852 7.89471C32.5993 7.95111 32.6083 7.9925 32.6135 8.02108C32.6161 8.0352 32.6173 8.04355 32.6177 8.04719C32.6182 8.05183 32.6172 8.04533 32.6172 8.03125H33.6172C33.6172 7.91396 33.585 7.77076 33.5554 7.65217L32.5852 7.89471ZM32.6172 8.03125C32.6172 8.05851 32.6119 8.10865 32.5896 8.18686L33.5511 8.46158C33.5912 8.32104 33.6172 8.17586 33.6172 8.03125H32.6172ZM33.027 7.8261C32.6605 7.85796 32.3523 7.89458 32.1065 7.93696L32.2764 8.92242C32.4837 8.88667 32.7613 8.85297 33.1136 8.82234L33.027 7.8261ZM32.1207 7.93471C31.8811 7.96894 31.5914 8.02731 31.2553 8.10735L31.4869 9.08015C31.807 9.00394 32.0642 8.95294 32.2621 8.92466L32.1207 7.93471ZM31.2526 8.10799C30.8876 8.19701 30.5587 8.3369 30.306 8.55518L30.9596 9.31201C31.0506 9.23341 31.2139 9.14674 31.4896 9.07951L31.2526 8.10799ZM30.3162 8.54662C30.045 8.76853 29.8775 9.06951 29.8637 9.43L30.8629 9.46844C30.8647 9.42268 30.8769 9.37991 30.9494 9.32057L30.3162 8.54662ZM29.8636 9.43012C29.7619 12.0917 29.7109 14.5708 29.7109 16.8672H30.7109C30.7109 14.5854 30.7616 12.1192 30.8629 9.46832L29.8636 9.43012ZM29.7109 16.8672C29.7109 18.5466 29.7541 20.7283 29.8401 23.4106L30.8396 23.3785C30.7537 20.7014 30.7109 18.5315 30.7109 16.8672H29.7109ZM29.8402 23.4137C29.854 23.7724 30.0194 24.073 30.2826 24.3003L30.9362 23.5435C30.8556 23.4739 30.8413 23.4229 30.8395 23.3753L29.8402 23.4137ZM30.2928 24.3089C30.5436 24.5141 30.8685 24.6478 31.2292 24.7358L31.4661 23.7642C31.1862 23.696 31.0189 23.6109 30.926 23.5349L30.2928 24.3089ZM31.2318 24.7364C31.565 24.8157 31.8485 24.8766 32.0801 24.918L32.2559 23.9336C32.0499 23.8968 31.7865 23.8405 31.4635 23.7636L31.2318 24.7364ZM32.0997 24.9211C32.3378 24.9539 32.64 24.986 33.0036 25.0177L33.0902 24.0214C32.735 23.9905 32.4512 23.9601 32.2363 23.9305L32.0997 24.9211ZM32.5725 24.6776C32.584 24.7119 32.5938 24.7628 32.5938 24.8359H33.5938C33.5938 24.6747 33.5723 24.5146 33.5212 24.3614L32.5725 24.6776ZM32.5938 24.8359C32.5938 24.8267 32.5948 24.8282 32.5917 24.8433C32.5888 24.8579 32.5831 24.8805 32.5725 24.9122L33.5212 25.2284C33.5608 25.1097 33.5938 24.9741 33.5938 24.8359H32.5938ZM33.0645 24.5706C31.7302 24.5235 30.365 24.5 28.9688 24.5V25.5C30.3538 25.5 31.7073 25.5233 33.0292 25.57L33.0645 24.5706ZM28.9688 24.5C27.557 24.5 26.1916 24.5235 24.8728 24.5706L24.9085 25.57C26.2146 25.5233 27.568 25.5 28.9688 25.5V24.5ZM25.365 24.9122C25.3544 24.8805 25.3487 24.8579 25.3458 24.8433C25.3427 24.8282 25.3438 24.8267 25.3438 24.8359H24.3438C24.3438 24.9741 24.3767 25.1097 24.4163 25.2284L25.365 24.9122ZM25.3438 24.8359C25.3438 24.7884 25.3466 24.7539 25.3501 24.7305C25.3536 24.7066 25.3569 24.7 25.3549 24.7052L24.4264 24.3338C24.3618 24.4952 24.3438 24.6721 24.3438 24.8359H25.3438ZM24.9404 25.017C25.1756 24.9935 25.3651 24.9738 25.5083 24.9579L25.3979 23.964C25.2599 23.9793 25.0744 23.9987 24.8409 24.022L24.9404 25.017ZM25.5083 24.9579C25.6609 24.9409 25.8616 24.9121 26.107 24.8725L25.9477 23.8853C25.7087 23.9238 25.5266 23.9497 25.3979 23.964L25.5083 24.9579ZM26.1045 24.8729C26.3661 24.832 26.593 24.7844 26.7756 24.7268L26.4744 23.7732C26.3601 23.8093 26.1886 23.8476 25.9502 23.8849L26.1045 24.8729ZM26.7902 24.7219C26.9649 24.6608 27.1417 24.5873 27.3204 24.5022L26.8905 23.5994C26.7411 23.6705 26.5976 23.7299 26.4598 23.7781L26.7902 24.7219ZM27.3204 24.5022C27.5352 24.3999 27.7339 24.2586 27.8756 24.0602L27.0619 23.4789C27.0474 23.4992 27.0038 23.5454 26.8905 23.5994L27.3204 24.5022ZM27.8619 24.0784C28.0179 23.8799 28.0977 23.6459 28.0977 23.3945H27.0977C27.0977 23.4245 27.0915 23.4404 27.0756 23.4606L27.8619 24.0784ZM28.0973 23.4137C28.1913 20.9619 28.2383 18.4907 28.2383 16H27.2383C27.2383 18.4781 27.1915 20.9365 27.098 23.3754L28.0973 23.4137ZM28.2383 16C28.2383 13.4641 28.1992 11.2731 28.1206 9.42796L27.1215 9.47048C27.1993 11.2973 27.2383 13.4734 27.2383 16H28.2383ZM28.1207 9.43C28.1069 9.06951 27.9394 8.76853 27.6682 8.54662L27.0349 9.32057C27.1075 9.37991 27.1197 9.42268 27.1215 9.46844L28.1207 9.43ZM27.6784 8.55518C27.4235 8.3351 27.0886 8.19574 26.7174 8.10735L26.4858 9.08015C26.7708 9.14801 26.9358 9.23522 27.0248 9.31201L27.6784 8.55518ZM26.72 8.10799C26.3897 8.02742 26.0986 7.96872 25.8496 7.93438L25.7129 8.925C25.9171 8.95315 26.1728 9.00383 26.4831 9.07951L26.72 8.10799ZM25.8691 7.93747C25.6294 7.89467 25.3237 7.85796 24.9574 7.8261L24.8707 8.82234C25.2231 8.85298 25.4956 8.88658 25.6934 8.9219L25.8691 7.93747ZM25.4022 8.21575C25.3878 8.15124 25.3783 8.10213 25.3726 8.06651C25.3662 8.02653 25.3672 8.01904 25.3672 8.03125H24.3672C24.3672 8.14805 24.3956 8.29598 24.426 8.43268L25.4022 8.21575ZM25.3672 8.03125C25.3672 8.01893 25.3699 7.98719 25.3884 7.93155L24.4397 7.61532C24.3958 7.74719 24.3672 7.88732 24.3672 8.03125H25.3672ZM41.0625 24.5195L41.5097 24.2959L41.3919 24.0602L41.1308 24.0242L41.0625 24.5195ZM41.0625 25.0703L41.0398 25.5698L41.3644 25.5846L41.5097 25.2939L41.0625 25.0703ZM35.0859 25.0703L34.6009 25.1916L34.7001 25.5884L35.1086 25.5698L35.0859 25.0703ZM35.0859 24.5195L35.0258 24.0232L34.6666 24.0667L34.5956 24.4215L35.0859 24.5195ZM35.7188 24.4258L35.8123 24.917L35.8235 24.9148L35.8346 24.9122L35.7188 24.4258ZM36.8789 23.9219L37.2527 24.2542L37.2614 24.2439L36.8789 23.9219ZM37.0781 23.3945L36.5785 23.3743L36.5785 23.3753L37.0781 23.3945ZM37.1016 16.3867H37.6016V16.107L37.3632 15.9606L37.1016 16.3867ZM34.8516 15.9062L34.3665 16.0275L34.4569 16.3892L34.8294 16.4058L34.8516 15.9062ZM34.8516 15.3555L34.8003 14.8581L34.4515 14.8941L34.3665 15.2342L34.8516 15.3555ZM38.8125 14.3945L38.9982 13.9303L38.8054 13.8532L38.6148 13.9353L38.8125 14.3945ZM39.2227 14.6992H39.7227V14.5558L39.6467 14.4342L39.2227 14.6992ZM39.2227 16.5508H38.7227V17.6537L39.5522 16.9268L39.2227 16.5508ZM41.4023 14.957L41.6509 15.3909L41.6546 15.3887L41.4023 14.957ZM45.3984 15.0977L44.9954 15.3936L44.9984 15.3977L45.3984 15.0977ZM45.9844 17.4414L45.4844 17.4488L45.4845 17.4512L45.9844 17.4414ZM46.1016 23.3945L45.6016 23.4044L45.6019 23.4137L46.1016 23.3945ZM46.2773 23.9219L45.8748 24.2185L45.8837 24.2305L45.8932 24.242L46.2773 23.9219ZM46.7695 24.25L46.5959 24.7189L46.6014 24.7209L46.7695 24.25ZM47.3086 24.4258L47.1748 24.9075L47.1874 24.911L47.2001 24.9139L47.3086 24.4258ZM47.8594 24.5195L48.3497 24.4215L48.2799 24.0728L47.9277 24.0242L47.8594 24.5195ZM47.8594 25.0703L47.8361 25.5698L48.2141 25.5874L48.3337 25.2284L47.8594 25.0703ZM42.3164 25.0703L41.8313 25.1916L41.9306 25.5888L42.3396 25.5698L42.3164 25.0703ZM42.3164 24.5195L42.2404 24.0253L41.9119 24.0759L41.8313 24.3983L42.3164 24.5195ZM42.8203 24.4258L42.9348 24.9125L42.9445 24.9102L42.9541 24.9075L42.8203 24.4258ZM43.2891 24.25L43.0897 23.7914L43.0822 23.7948L43.2891 24.25ZM43.6875 23.9219L43.2647 23.6548L43.2609 23.6611L43.6875 23.9219ZM43.8281 23.3945L43.3281 23.3924V23.3945H43.8281ZM43.8516 17.8281L44.3516 17.8302V17.8281H43.8516ZM39.2227 17.3008L38.9255 16.8987L38.7227 17.0486V17.3008H39.2227ZM39.3164 23.3945L38.8167 23.412L38.8168 23.4137L39.3164 23.3945ZM39.4922 23.9219L39.0897 24.2185L39.0985 24.2305L39.1081 24.242L39.4922 23.9219ZM40.5117 24.4258L40.3779 24.9075L40.3905 24.911L40.4033 24.9139L40.5117 24.4258ZM40.6153 24.7431C40.6286 24.7698 40.6328 24.7911 40.6328 24.8125H41.6328C41.6328 24.6308 41.5902 24.4568 41.5097 24.2959L40.6153 24.7431ZM40.6328 24.8125C40.6328 24.8014 40.6345 24.798 40.6329 24.804C40.6312 24.8102 40.6265 24.8243 40.6153 24.8467L41.5097 25.2939C41.58 25.1534 41.6328 24.9901 41.6328 24.8125H40.6328ZM41.0852 24.5708C40.0469 24.5236 39.0393 24.5 38.0625 24.5V25.5C39.0232 25.5 40.0156 25.5232 41.0398 25.5698L41.0852 24.5708ZM38.0625 24.5C37.1012 24.5 36.1014 24.5236 35.0632 24.5708L35.1086 25.5698C36.1329 25.5232 37.1175 25.5 38.0625 25.5V24.5ZM35.571 24.949C35.5569 24.8926 35.5479 24.8512 35.5427 24.8227C35.5402 24.8086 35.539 24.8002 35.5386 24.7966C35.538 24.7919 35.5391 24.7984 35.5391 24.8125H34.5391C34.5391 24.9298 34.5712 25.073 34.6009 25.1916L35.571 24.949ZM35.5391 24.8125C35.5391 24.8307 35.5376 24.8391 35.5388 24.829C35.5396 24.8218 35.5413 24.8089 35.5445 24.789C35.5509 24.7491 35.5612 24.6927 35.5762 24.6176L34.5956 24.4215C34.5794 24.5026 34.5663 24.5731 34.5571 24.631C34.5495 24.6782 34.5391 24.7485 34.5391 24.8125H35.5391ZM35.1461 25.0159C35.4097 24.9839 35.6329 24.9511 35.8123 24.917L35.6252 23.9346C35.4765 23.9629 35.2778 23.9926 35.0258 24.0232L35.1461 25.0159ZM35.8346 24.9122C36.016 24.869 36.2326 24.8062 36.4816 24.7259L36.1746 23.7741C35.9393 23.8501 35.7497 23.9044 35.6029 23.9394L35.8346 24.9122ZM36.4816 24.7259C36.7799 24.6296 37.051 24.4809 37.2526 24.2541L36.5052 23.5897C36.4568 23.6441 36.3607 23.7141 36.1746 23.7741L36.4816 24.7259ZM37.2614 24.2439C37.4616 24.0062 37.5659 23.7224 37.5778 23.4137L36.5785 23.3753C36.5747 23.4729 36.5462 23.5407 36.4965 23.5998L37.2614 24.2439ZM37.5777 23.4147C37.6093 22.6324 37.625 21.6878 37.625 20.582H36.625C36.625 21.6794 36.6094 22.6098 36.5785 23.3743L37.5777 23.4147ZM37.625 20.582C37.625 20.2124 37.6211 19.5854 37.6133 18.7026L36.6133 18.7115C36.6211 19.5943 36.625 20.2173 36.625 20.582H37.625ZM37.6133 18.7026C37.6055 17.8208 37.6016 17.0489 37.6016 16.3867H36.6016C36.6016 17.0526 36.6055 17.8276 36.6133 18.7115L37.6133 18.7026ZM37.3632 15.9606C36.8031 15.6167 35.9432 15.4543 34.8738 15.4067L34.8294 16.4058C35.8693 16.452 36.5094 16.6098 36.8399 16.8128L37.3632 15.9606ZM35.3366 15.785C35.3235 15.7325 35.3151 15.6914 35.3101 15.6603C35.3077 15.6449 35.3062 15.6332 35.3055 15.6248C35.3047 15.6163 35.3047 15.6127 35.3047 15.6133H34.3047C34.3047 15.7452 34.3321 15.8899 34.3665 16.0275L35.3366 15.785ZM35.3047 15.6133C35.3047 15.6274 35.3036 15.6339 35.3042 15.6292C35.3046 15.6256 35.3058 15.6172 35.3083 15.6031C35.3135 15.5745 35.3225 15.5331 35.3366 15.4767L34.3665 15.2342C34.3368 15.3528 34.3047 15.496 34.3047 15.6133H35.3047ZM34.9028 15.8528C36.4572 15.6926 37.8289 15.3624 39.0102 14.8538L38.6148 13.9353C37.5461 14.3954 36.2772 14.7058 34.8003 14.8581L34.9028 15.8528ZM38.6268 14.8588C38.7642 14.9137 38.7963 14.9604 38.7987 14.9642L39.6467 14.4342C39.4928 14.188 39.2514 14.0316 38.9982 13.9303L38.6268 14.8588ZM38.7227 14.6992V16.5508H39.7227V14.6992H38.7227ZM39.5522 16.9268C40.2911 16.2793 40.9907 15.7692 41.6509 15.3909L41.1537 14.5232C40.4234 14.9417 39.6699 15.4941 38.8931 16.1747L39.5522 16.9268ZM41.6546 15.3887C42.2837 15.0212 42.9007 14.8477 43.5117 14.8477V13.8477C42.7009 13.8477 41.9116 14.0804 41.1501 14.5253L41.6546 15.3887ZM43.5117 14.8477C44.3166 14.8477 44.7588 15.0714 44.9954 15.3936L45.8014 14.8017C45.3037 14.1239 44.4881 13.8477 43.5117 13.8477V14.8477ZM44.9984 15.3977C45.2793 15.7721 45.4694 16.4254 45.4844 17.4488L46.4843 17.4341C46.4681 16.3324 46.2676 15.4232 45.7984 14.7977L44.9984 15.3977ZM45.4845 17.4512L45.6017 23.4044L46.6015 23.3847L46.4843 17.4316L45.4845 17.4512ZM45.6019 23.4137C45.6132 23.7063 45.7 23.9812 45.8748 24.2185L46.6799 23.6253C46.636 23.5657 46.6056 23.489 46.6012 23.3753L45.6019 23.4137ZM45.8932 24.242C46.0778 24.4635 46.3216 24.6173 46.5959 24.7189L46.9432 23.7811C46.7956 23.7265 46.7112 23.6615 46.6615 23.6018L45.8932 24.242ZM46.6014 24.7209C46.8257 24.801 47.0179 24.864 47.1748 24.9075L47.4424 23.944C47.3181 23.9095 47.1509 23.8553 46.9377 23.7791L46.6014 24.7209ZM47.2001 24.9139C47.3594 24.9493 47.5578 24.9827 47.7911 25.0148L47.9277 24.0242C47.7078 23.9939 47.5391 23.9648 47.4171 23.9377L47.2001 24.9139ZM47.3691 24.6176C47.3838 24.6911 47.3938 24.7476 47.3999 24.7891C47.4068 24.8358 47.4062 24.8464 47.4062 24.8359H48.4062C48.4062 24.7238 48.3795 24.5705 48.3497 24.4215L47.3691 24.6176ZM47.4062 24.8359C47.4062 24.8267 47.4073 24.8282 47.4042 24.8433C47.4013 24.8579 47.3956 24.8805 47.385 24.9122L48.3337 25.2284C48.3733 25.1097 48.4062 24.9741 48.4062 24.8359H47.4062ZM47.8826 24.5709C46.8684 24.5237 45.9309 24.5 45.0703 24.5V25.5C45.9129 25.5 46.8347 25.5232 47.8361 25.5698L47.8826 24.5709ZM45.0703 24.5C44.233 24.5 43.3071 24.5237 42.2932 24.5709L42.3396 25.5698C43.3413 25.5232 44.2514 25.5 45.0703 25.5V24.5ZM42.8015 24.949C42.788 24.8953 42.7795 24.8541 42.7744 24.8241C42.7691 24.7919 42.7695 24.7825 42.7695 24.7891H41.7695C41.7695 24.9161 41.7983 25.0595 41.8313 25.1916L42.8015 24.949ZM42.7695 24.7891C42.7695 24.8031 42.7682 24.799 42.7739 24.7663C42.7789 24.7371 42.7877 24.6959 42.8015 24.6408L41.8313 24.3983C41.7999 24.524 41.7695 24.6669 41.7695 24.7891H42.7695ZM42.3924 25.0137C42.6027 24.9814 42.7847 24.9478 42.9348 24.9125L42.7058 23.9391C42.5903 23.9662 42.4363 23.9952 42.2404 24.0253L42.3924 25.0137ZM42.9541 24.9075C43.1258 24.8599 43.3069 24.7911 43.496 24.7052L43.0822 23.7948C42.9275 23.8651 42.7961 23.9136 42.6865 23.944L42.9541 24.9075ZM43.4884 24.7085C43.7442 24.5973 43.9651 24.4265 44.1141 24.1826L43.2609 23.6611C43.238 23.6985 43.1933 23.7464 43.0897 23.7915L43.4884 24.7085ZM44.1102 24.1889C44.262 23.9486 44.3281 23.677 44.3281 23.3945H43.3281C43.3281 23.5183 43.3005 23.5983 43.2648 23.6549L44.1102 24.1889ZM44.3281 23.3966L44.3516 17.8302L43.3516 17.826L43.3281 23.3924L44.3281 23.3966ZM44.3516 17.8281C44.3516 17.0872 44.2429 16.4483 43.9606 15.9794C43.6537 15.4699 43.1685 15.207 42.5742 15.207V16.207C42.8315 16.207 42.9849 16.2977 43.1039 16.4952C43.2473 16.7334 43.3516 17.155 43.3516 17.8281H44.3516ZM42.5742 15.207C42.0718 15.207 41.5163 15.3723 40.924 15.6539C40.3267 15.9379 39.6597 16.356 38.9255 16.8987L39.5199 17.7029C40.2231 17.1831 40.8335 16.8042 41.3534 16.557C41.8783 16.3074 42.2798 16.207 42.5742 16.207V15.207ZM38.7227 17.3008C38.7227 19.5786 38.754 21.6158 38.8167 23.412L39.8161 23.3771C39.7539 21.5951 39.7227 19.5699 39.7227 17.3008H38.7227ZM38.8168 23.4137C38.828 23.7063 38.9148 23.9812 39.0897 24.2185L39.8947 23.6253C39.8508 23.5657 39.8204 23.489 39.816 23.3753L38.8168 23.4137ZM39.1081 24.242C39.2927 24.4635 39.5365 24.6173 39.8107 24.7189L40.158 23.7811C40.0104 23.7265 39.9261 23.6615 39.8763 23.6018L39.1081 24.242ZM39.8107 24.7189C40.0286 24.7996 40.2187 24.8633 40.3779 24.9075L40.6455 23.944C40.5235 23.9101 40.3621 23.8567 40.158 23.7811L39.8107 24.7189ZM40.4033 24.9139C40.5625 24.9493 40.761 24.9827 40.9942 25.0148L41.1308 24.0242C40.9109 23.9939 40.7422 23.9648 40.6202 23.9377L40.4033 24.9139Z" fill="#139767"/>
</g>
</g>
<defs>
<filter id="filter0_d_1_3" x="0" y="0" width="82" height="72" filterUnits="userSpaceOnUse" color-interpolation-filters="sRGB">
<feFlood flood-opacity="0" result="BackgroundImageFix"/>
<feColorMatrix in="SourceAlpha" type="matrix" values="0 0 0 0 0 0 0 0 0 0 0 0 0 0 0 0 0 0 127 0" result="hardAlpha"/>
<feOffset dy="4"/>
<feGaussianBlur stdDeviation="2"/>
<feComposite in2="hardAlpha" operator="out"/>
<feColorMatrix type="matrix" values="0 0 0 0 0 0 0 0 0 0 0 0 0 0 0 0 0 0 0.25 0"/>
<feBlend mode="normal" in2="BackgroundImageFix" result="effect1_dropShadow_1_3"/>
<feBlend mode="normal" in="SourceGraphic" in2="effect1_dropShadow_1_3" result="shape"/>
</filter>
<filter id="filter1_d_1_3" x="23.9482" y="26.6977" width="43.1855" height="30.6172" filterUnits="userSpaceOnUse" color-interpolation-filters="sRGB">
<feFlood flood-opacity="0" result="BackgroundImageFix"/>
<feColorMatrix in="SourceAlpha" type="matrix" values="0 0 0 0 0 0 0 0 0 0 0 0 0 0 0 0 0 0 127 0" result="hardAlpha"/>
<feOffset dx="2" dy="2"/>
<feGaussianBlur stdDeviation="2"/>
<feComposite in2="hardAlpha" operator="out"/>
<feColorMatrix type="matrix" values="0 0 0 0 0 0 0 0 0 0 0 0 0 0 0 0 0 0 0.25 0"/>
<feBlend mode="normal" in2="BackgroundImageFix" result="effect1_dropShadow_1_3"/>
<feBlend mode="normal" in="SourceGraphic" in2="effect1_dropShadow_1_3" result="shape"/>
</filter>
<filter id="filter2_d_1_3" x="22.8438" y="5.77344" width="31.0625" height="25.2969" filterUnits="userSpaceOnUse" color-interpolation-filters="sRGB">
<feFlood flood-opacity="0" result="BackgroundImageFix"/>
<feColorMatrix in="SourceAlpha" type="matrix" values="0 0 0 0 0 0 0 0 0 0 0 0 0 0 0 0 0 0 127 0" result="hardAlpha"/>
<feOffset dx="2" dy="2"/>
<feGaussianBlur stdDeviation="2"/>
<feComposite in2="hardAlpha" operator="out"/>
<feColorMatrix type="matrix" values="0 0 0 0 0 0 0 0 0 0 0 0 0 0 0 0 0 0 0.25 0"/>
<feBlend mode="normal" in2="BackgroundImageFix" result="effect1_dropShadow_1_3"/>
<feBlend mode="normal" in="SourceGraphic" in2="effect1_dropShadow_1_3" result="shape"/>
</filter>
</defs>
</svg>
