<svg width="164" height="117" viewBox="0 0 164 117" fill="none" xmlns="http://www.w3.org/2000/svg">
<g filter="url(#filter0_d_1_3)">
<rect x="4" width="156" height="109" rx="5" fill="#C5E8F7"/>
<g filter="url(#filter1_d_1_3)">
<path d="M77.6621 58.6436C78.5879 58.6436 79.5078 58.708 80.4219 58.8369C81.3477 58.9541 82.2324 59.1006 83.0762 59.2764C83.9316 59.4404 84.7402 59.6045 85.502 59.7686C86.2637 59.9326 86.9492 60.0498 87.5586 60.1201C87.418 60.542 87.3477 61.2861 87.3477 62.3526C87.3477 64.4268 87.6582 66.2256 88.2793 67.749C88.209 67.96 87.9922 68.0889 87.6289 68.1358L86.873 66.5186C86.498 65.71 86.0469 64.9131 85.5195 64.1279C84.9922 63.3311 84.3594 62.6221 83.6211 62.001C82.8828 61.3682 82.0215 60.8584 81.0371 60.4717C80.0645 60.085 78.9395 59.8916 77.6621 59.8916C76.5605 59.8916 75.582 60.0733 74.7266 60.4365C73.8711 60.7998 73.1211 61.292 72.4766 61.9131C71.832 62.5225 71.2871 63.2373 70.8418 64.0576C70.3965 64.8662 70.0332 65.7276 69.752 66.6416C69.4824 67.5557 69.2832 68.4932 69.1543 69.4541C69.0371 70.4151 68.9785 71.3467 68.9785 72.249C68.9785 73.749 69.1719 75.1846 69.5586 76.5557C69.957 77.9268 70.5723 79.1397 71.4043 80.1944C72.2363 81.2373 73.291 82.0694 74.5684 82.6904C75.8574 83.3115 77.3926 83.6221 79.1738 83.6221C82.584 83.6221 85.1621 82.5557 86.9082 80.4229C87.0957 80.4229 87.248 80.4756 87.3652 80.5811C87.4941 80.6865 87.5586 80.8154 87.5586 80.9678C86.9961 81.7998 86.3105 82.5205 85.502 83.1299C84.7051 83.7393 83.8555 84.2432 82.9531 84.6416C82.0508 85.0283 81.1367 85.3154 80.2109 85.5029C79.2969 85.6904 78.4473 85.7842 77.6621 85.7842C76.8066 85.7842 75.8809 85.6904 74.8848 85.5029C73.9004 85.3272 72.9102 85.0283 71.9141 84.6065C70.9297 84.1846 69.9805 83.6338 69.0664 82.9541C68.1641 82.2627 67.3613 81.419 66.6582 80.4229C65.9551 79.4151 65.3926 78.2373 64.9707 76.8897C64.5488 75.542 64.3379 73.9951 64.3379 72.249C64.3379 70.4912 64.5488 68.9385 64.9707 67.5908C65.3926 66.2315 65.9551 65.0479 66.6582 64.0401C67.373 63.0322 68.1875 62.1885 69.1016 61.5088C70.0273 60.8174 70.9824 60.2608 71.9668 59.8389C72.9512 59.4053 73.9355 59.1006 74.9199 58.9248C75.9043 58.7373 76.8184 58.6436 77.6621 58.6436ZM99.002 69.085C100.162 69.085 101.205 69.2901 102.131 69.7002C103.068 70.1104 103.865 70.6787 104.521 71.4053C105.178 72.1319 105.682 73.0049 106.033 74.0244C106.385 75.0322 106.561 76.1338 106.561 77.3291C106.561 79.7666 105.875 81.7471 104.504 83.2705C103.145 84.8057 101.311 85.5733 99.002 85.5733C97.8535 85.5733 96.8105 85.374 95.873 84.9756C94.9473 84.5654 94.1562 83.9971 93.5 83.2705C92.8438 82.5322 92.334 81.6592 91.9707 80.6514C91.6191 79.6436 91.4434 78.5361 91.4434 77.3291C91.4434 76.1338 91.6191 75.0322 91.9707 74.0244C92.3223 73.0049 92.8203 72.1319 93.4648 71.4053C94.1211 70.6787 94.918 70.1104 95.8555 69.7002C96.793 69.2901 97.8418 69.085 99.002 69.085ZM99.002 70.2276C97.8066 70.2276 96.8516 70.8076 96.1367 71.9678C95.4336 73.1279 95.082 74.9151 95.082 77.3291C95.082 79.7432 95.4336 81.5303 96.1367 82.6904C96.8516 83.8389 97.8066 84.4131 99.002 84.4131C100.197 84.4131 101.146 83.833 101.85 82.6729C102.564 81.5127 102.922 79.7315 102.922 77.3291C102.922 76.1221 102.828 75.0733 102.641 74.1826C102.453 73.292 102.189 72.5537 101.85 71.9678C101.51 71.3819 101.1 70.9483 100.619 70.667C100.139 70.374 99.5996 70.2276 99.002 70.2276Z" fill="#0A0A0A"/>
<path d="M80.4219 58.8369L80.3381 59.4311L80.3465 59.4322L80.4219 58.8369ZM83.0762 59.2764L82.9538 59.8638L82.9632 59.8656L83.0762 59.2764ZM87.5586 60.1201L88.1278 60.3099L88.3615 59.6088L87.6274 59.5241L87.5586 60.1201ZM88.2793 67.749L88.8485 67.9388L88.9187 67.7281L88.8349 67.5225L88.2793 67.749ZM87.6289 68.1358L87.0853 68.3898L87.271 68.7869L87.7057 68.7308L87.6289 68.1358ZM86.873 66.5186L86.3287 66.771L86.3295 66.7726L86.873 66.5186ZM85.5195 64.1279L85.0192 64.4591L85.0214 64.4625L85.5195 64.1279ZM83.6211 62.001L83.2306 62.4566L83.2348 62.4601L83.6211 62.001ZM81.0371 60.4717L80.8154 61.0292L80.8177 61.0301L81.0371 60.4717ZM72.4766 61.9131L72.8888 62.3491L72.8929 62.3451L72.4766 61.9131ZM70.8418 64.0576L71.3674 64.3471L71.3691 64.3439L70.8418 64.0576ZM69.752 66.6416L69.1784 66.4652L69.1765 66.4719L69.752 66.6416ZM69.1543 69.4541L68.5596 69.3743L68.5587 69.3815L69.1543 69.4541ZM69.5586 76.5557L68.9811 76.7186L68.9824 76.7231L69.5586 76.5557ZM71.4043 80.1944L70.9332 80.566L70.9353 80.5685L71.4043 80.1944ZM74.5684 82.6904L74.306 83.23L74.3079 83.231L74.5684 82.6904ZM86.9082 80.4229V79.8229H86.624L86.4439 80.0428L86.9082 80.4229ZM87.3652 80.5811L86.9639 81.027L86.9744 81.0365L86.9853 81.0454L87.3652 80.5811ZM87.5586 80.9678L88.0557 81.3038L88.1586 81.1516V80.9678H87.5586ZM85.502 83.1299L85.1408 82.6507L85.1375 82.6533L85.502 83.1299ZM82.9531 84.6416L83.1895 85.1931L83.1955 85.1905L82.9531 84.6416ZM80.2109 85.5029L80.0918 84.9149L80.0904 84.9152L80.2109 85.5029ZM74.8848 85.5029L74.9958 84.9133L74.9902 84.9123L74.8848 85.5029ZM71.9141 84.6065L71.6777 85.158L71.6801 85.159L71.9141 84.6065ZM69.0664 82.9541L68.7014 83.4304L68.7084 83.4356L69.0664 82.9541ZM66.6582 80.4229L66.1661 80.7662L66.168 80.7689L66.6582 80.4229ZM64.9707 67.5908L65.5433 67.7701L65.5437 67.7687L64.9707 67.5908ZM66.6582 64.0401L66.1688 63.6929L66.1661 63.6967L66.6582 64.0401ZM69.1016 61.5088L69.4596 61.9903L69.4606 61.9895L69.1016 61.5088ZM71.9668 59.8389L72.2032 60.3904L72.2087 60.388L71.9668 59.8389ZM74.9199 58.9248L75.0254 59.5155L75.0322 59.5142L74.9199 58.9248ZM77.6621 59.2436C78.5599 59.2436 79.4519 59.3061 80.3381 59.4311L80.5057 58.2428C79.5638 58.11 78.6158 58.0436 77.6621 58.0436V59.2436ZM80.3465 59.4322C81.2578 59.5475 82.1268 59.6915 82.9538 59.8638L83.1985 58.689C82.338 58.5097 81.4375 58.3607 80.4972 58.2417L80.3465 59.4322ZM82.9632 59.8656C83.8147 60.029 84.6188 60.1921 85.3756 60.3551L85.6283 59.182C84.8617 59.0169 84.0486 58.8519 83.1892 58.6871L82.9632 59.8656ZM85.3756 60.3551C86.1516 60.5222 86.8568 60.6431 87.4898 60.7162L87.6274 59.5241C87.0417 59.4565 86.3758 59.343 85.6283 59.182L85.3756 60.3551ZM86.9894 59.9304C86.8148 60.4541 86.7477 61.2867 86.7477 62.3526H87.9477C87.9477 61.2856 88.0211 60.6299 88.1278 60.3099L86.9894 59.9304ZM86.7477 62.3526C86.7477 64.4849 87.0667 66.3641 87.7237 67.9756L88.8349 67.5225C88.2497 66.0871 87.9477 64.3686 87.9477 62.3526H86.7477ZM87.7101 67.5593C87.7166 67.5397 87.7275 67.5203 87.7408 67.5046C87.7533 67.4898 87.7617 67.4856 87.7573 67.4882C87.7436 67.4963 87.6863 67.5234 87.5521 67.5407L87.7057 68.7308C88.138 68.675 88.6656 68.4875 88.8485 67.9388L87.7101 67.5593ZM88.1725 67.8817L87.4166 66.2645L86.3295 66.7726L87.0853 68.3898L88.1725 67.8817ZM87.4174 66.2661C87.0283 65.4273 86.5614 64.6031 86.0176 63.7934L85.0214 64.4625C85.5323 65.2231 85.9677 65.9926 86.3287 66.771L87.4174 66.2661ZM86.0199 63.7968C85.4605 62.9516 84.7892 62.1996 84.0074 61.5419L83.2348 62.4601C83.9296 63.0446 84.5238 63.7106 85.0192 64.4591L86.0199 63.7968ZM84.0116 61.5454C83.2181 60.8654 82.2978 60.3223 81.2565 59.9132L80.8177 61.0301C81.7452 61.3945 82.5475 61.871 83.2306 62.4565L84.0116 61.5454ZM81.2588 59.9141C80.2019 59.4939 78.9991 59.2916 77.6621 59.2916V60.4916C78.8798 60.4916 79.927 60.676 80.8154 61.0292L81.2588 59.9141ZM77.6621 59.2916C76.4946 59.2916 75.4341 59.4842 74.492 59.8843L74.9611 60.9888C75.73 60.6623 76.6265 60.4916 77.6621 60.4916V59.2916ZM74.492 59.8843C73.5718 60.2751 72.7595 60.8072 72.0602 61.4811L72.8929 62.3451C73.4827 61.7768 74.1704 61.3246 74.9611 60.9888L74.492 59.8843ZM72.0644 61.4771C71.3714 62.1322 70.7884 62.8983 70.3145 63.7714L71.3691 64.3439C71.7858 63.5763 72.2926 62.9127 72.8888 62.3491L72.0644 61.4771ZM70.3162 63.7682C69.8504 64.614 69.4714 65.5133 69.1785 66.4652L70.3254 66.8181C70.595 65.9418 70.9425 65.1185 71.3674 64.3471L70.3162 63.7682ZM69.1765 66.4719C68.8981 67.4159 68.6925 68.3835 68.5596 69.3743L69.749 69.5339C69.8739 68.6028 70.0668 67.6954 70.3275 66.8113L69.1765 66.4719ZM68.5587 69.3815C68.4388 70.3648 68.3785 71.3207 68.3785 72.249H69.5785C69.5785 71.3727 69.6354 70.4653 69.7499 69.5267L68.5587 69.3815ZM68.3785 72.249C68.3785 73.8012 68.5787 75.2917 68.9811 76.7186L70.1361 76.3928C69.7651 75.0774 69.5785 73.6969 69.5785 72.249H68.3785ZM68.9824 76.7231C69.4011 78.1637 70.0504 79.4469 70.9332 80.566L71.8754 79.8227C71.0941 78.8325 70.513 77.6899 70.1348 76.3882L68.9824 76.7231ZM70.9353 80.5685C71.8266 81.6858 72.9536 82.5725 74.306 83.23L74.8307 82.1509C73.6284 81.5662 72.6461 80.7888 71.8733 79.8202L70.9353 80.5685ZM74.3079 83.231C75.6956 83.8996 77.3239 84.2221 79.1738 84.2221V83.0221C77.4612 83.0221 76.0192 82.7235 74.8288 82.1499L74.3079 83.231ZM79.1738 84.2221C82.7171 84.2221 85.4858 83.1075 87.3725 80.8029L86.4439 80.0428C84.8384 82.0039 82.4508 83.0221 79.1738 83.0221V84.2221ZM86.9082 81.0229C86.9458 81.0229 86.9631 81.0281 86.9668 81.0294C86.9687 81.0301 86.9685 81.0302 86.967 81.0293C86.9655 81.0284 86.9643 81.0275 86.9639 81.027L87.7666 80.1351C87.519 79.9123 87.2143 79.8229 86.9082 79.8229V81.0229ZM86.9853 81.0454C86.9944 81.0529 86.9846 81.0473 86.9736 81.0252C86.9683 81.0147 86.9643 81.0033 86.9617 80.992C86.9591 80.9808 86.9586 80.9723 86.9586 80.9678H88.1586C88.1586 80.6172 87.9986 80.324 87.7452 80.1167L86.9853 81.0454ZM87.0615 80.6317C86.5364 81.4084 85.897 82.0809 85.1408 82.6507L85.8631 83.6091C86.7241 82.9601 87.4557 82.1912 88.0557 81.3038L87.0615 80.6317ZM85.1375 82.6533C84.3777 83.2343 83.569 83.7138 82.7108 84.0927L83.1955 85.1905C84.142 84.7726 85.0325 84.2442 85.8664 83.6065L85.1375 82.6533ZM82.7168 84.0901C81.8507 84.4613 80.9758 84.7358 80.0918 84.9149L80.33 86.091C81.2976 85.895 82.2509 85.5954 83.1895 85.1931L82.7168 84.0901ZM80.0904 84.9152C79.2088 85.096 78.4 85.1842 77.6621 85.1842V86.3842C78.4945 86.3842 79.3849 86.2849 80.3315 86.0907L80.0904 84.9152ZM77.6621 85.1842C76.85 85.1842 75.9618 85.0951 74.9958 84.9133L74.7738 86.0926C75.8 86.2858 76.7633 86.3842 77.6621 86.3842V85.1842ZM74.9902 84.9123C74.0534 84.745 73.1062 84.4598 72.1481 84.054L71.6801 85.159C72.7141 85.5969 73.7474 85.9093 74.7793 86.0936L74.9902 84.9123ZM72.1504 84.055C71.2118 83.6527 70.3032 83.1261 69.4244 82.4726L68.7084 83.4356C69.6577 84.1415 70.6475 84.7164 71.6777 85.1579L72.1504 84.055ZM69.4313 82.4779C68.5804 81.8259 67.8191 81.027 67.1484 80.0769L66.168 80.7689C66.9036 81.8109 67.7477 82.6995 68.7015 83.4304L69.4313 82.4779ZM67.1503 80.0796C66.487 79.1289 65.9495 78.0081 65.5433 76.7104L64.3981 77.0689C64.8356 78.4665 65.4232 79.7013 66.1661 80.7662L67.1503 80.0796ZM65.5433 76.7104C65.1433 75.4326 64.9379 73.9481 64.9379 72.249H63.7379C63.7379 74.0422 63.9544 75.6514 64.3981 77.0689L65.5433 76.7104ZM64.9379 72.249C64.9379 70.5378 65.1434 69.0476 65.5433 67.7701L64.3981 67.4116C63.9543 68.8294 63.7379 70.4447 63.7379 72.249H64.9379ZM65.5437 67.7687C65.9501 66.4592 66.4876 65.3332 67.1503 64.3834L66.1661 63.6967C65.4226 64.7625 64.835 66.0038 64.3977 67.413L65.5437 67.7687ZM67.1476 64.3872C67.8291 63.4264 68.6002 62.6293 69.4596 61.9903L68.7435 61.0273C67.7748 61.7477 66.917 62.6381 66.1688 63.6929L67.1476 64.3872ZM69.4606 61.9895C70.3514 61.3243 71.2656 60.7922 72.2031 60.3904L71.7304 59.2874C70.6993 59.7293 69.7033 60.3105 68.7425 61.0281L69.4606 61.9895ZM72.2087 60.388C73.1527 59.9722 74.0914 59.6823 75.0254 59.5155L74.8144 58.3342C73.7797 58.5189 72.7497 58.8384 71.7249 59.2898L72.2087 60.388ZM75.0322 59.5142C75.9862 59.3325 76.8623 59.2436 77.6621 59.2436V58.0436C76.7745 58.0436 75.8224 58.1421 74.8077 58.3354L75.0322 59.5142ZM102.131 69.7002L101.888 70.2488L101.89 70.2499L102.131 69.7002ZM106.033 74.0244L105.466 74.22L105.467 74.2221L106.033 74.0244ZM104.504 83.2705L104.058 82.8691L104.055 82.8728L104.504 83.2705ZM95.873 84.9756L95.63 85.5242L95.6384 85.5278L95.873 84.9756ZM93.5 83.2705L93.0515 83.6692L93.0547 83.6727L93.5 83.2705ZM91.9707 80.6514L91.4042 80.849L91.4063 80.8548L91.9707 80.6514ZM91.9707 74.0244L92.5372 74.2221L92.5379 74.22L91.9707 74.0244ZM93.4648 71.4053L93.0196 71.0031L93.016 71.0071L93.4648 71.4053ZM96.1367 71.9678L95.6259 71.653L95.6236 71.6568L96.1367 71.9678ZM96.1367 82.6904L95.6236 83.0014L95.6273 83.0075L96.1367 82.6904ZM101.85 82.6729L101.339 82.3581L101.336 82.3619L101.85 82.6729ZM100.619 70.667L100.307 71.1794L100.316 71.1848L100.619 70.667ZM99.002 69.685C100.091 69.685 101.049 69.8771 101.888 70.2488L102.374 69.1516C101.361 68.703 100.234 68.485 99.002 68.485V69.685ZM101.89 70.2499C102.754 70.6275 103.48 71.1469 104.076 71.8075L104.967 71.0031C104.251 70.2106 103.383 69.5932 102.371 69.1505L101.89 70.2499ZM104.076 71.8075C104.673 72.4682 105.138 73.2691 105.466 74.22L106.6 73.8288C106.225 72.7407 105.682 71.7955 104.967 71.0031L104.076 71.8075ZM105.467 74.2221C105.794 75.1592 105.961 76.1931 105.961 77.3291H107.161C107.161 76.0745 106.976 74.9053 106.6 73.8268L105.467 74.2221ZM105.961 77.3291C105.961 79.648 105.312 81.4761 104.058 82.8691L104.95 83.6719C106.438 82.0181 107.161 79.8852 107.161 77.3291H105.961ZM104.055 82.8728C102.824 84.2623 101.163 84.9733 99.002 84.9733V86.1733C101.458 86.1733 103.465 85.349 104.953 83.6683L104.055 82.8728ZM99.002 84.9733C97.9239 84.9733 96.9621 84.7865 96.1077 84.4234L95.6384 85.5278C96.659 85.9616 97.7831 86.1733 99.002 86.1733V84.9733ZM96.1161 84.427C95.2645 84.0498 94.5432 83.5303 93.9453 82.8684L93.0547 83.6727C93.7693 84.4639 94.63 85.0811 95.63 85.5242L96.1161 84.427ZM93.9484 82.8719C93.3471 82.1954 92.8747 81.39 92.5352 80.4479L91.4063 80.8548C91.7932 81.9284 92.3404 82.8691 93.0516 83.6691L93.9484 82.8719ZM92.5372 80.4538C92.2105 79.5172 92.0434 78.4776 92.0434 77.3291H90.8434C90.8434 78.5947 91.0278 79.7699 91.4042 80.849L92.5372 80.4538ZM92.0434 77.3291C92.0434 76.1931 92.2103 75.1592 92.5372 74.2221L91.4042 73.8268C91.028 74.9053 90.8434 76.0745 90.8434 77.3291H92.0434ZM92.5379 74.22C92.8666 73.2669 93.3271 72.4647 93.9137 71.8035L93.016 71.0071C92.3136 71.799 91.7779 72.7429 91.4035 73.8288L92.5379 74.22ZM93.9101 71.8075C94.5068 71.1469 95.2328 70.6275 96.096 70.2499L95.615 69.1505C94.6031 69.5932 93.7354 70.2106 93.0196 71.0031L93.9101 71.8075ZM96.096 70.2499C96.9481 69.8771 97.9135 69.685 99.002 69.685V68.485C97.7701 68.485 96.6378 68.703 95.615 69.1505L96.096 70.2499ZM99.002 69.6276C97.566 69.6276 96.4319 70.345 95.6259 71.653L96.6475 72.2825C97.2713 71.2702 98.0472 70.8276 99.002 70.8276V69.6276ZM95.6236 71.6568C94.8347 72.9585 94.482 74.8794 94.482 77.3291H95.682C95.682 74.9507 96.0325 73.2974 96.6498 72.2788L95.6236 71.6568ZM94.482 77.3291C94.482 79.7789 94.8347 81.6998 95.6236 83.0014L96.6498 82.3795C96.0325 81.3608 95.682 79.7075 95.682 77.3291H94.482ZM95.6273 83.0075C96.4346 84.3044 97.569 85.0131 99.002 85.0131V83.8131C98.0443 83.8131 97.2685 83.3733 96.6461 82.3734L95.6273 83.0075ZM99.002 85.0131C100.439 85.0131 101.568 84.2946 102.363 82.9838L101.336 82.3619C100.725 83.3714 99.9558 83.8131 99.002 83.8131V85.0131ZM102.36 82.9876C103.163 81.6852 103.522 79.7688 103.522 77.3291H102.322C102.322 79.6941 101.966 81.3402 101.339 82.3581L102.36 82.9876ZM103.522 77.3291C103.522 76.0931 103.426 75.001 103.228 74.059L102.053 74.3062C102.23 75.1455 102.322 76.1511 102.322 77.3291H103.522ZM103.228 74.059C103.031 73.126 102.749 72.3231 102.369 71.6668L101.331 72.2688C101.63 72.7843 101.875 73.458 102.053 74.3062L103.228 74.059ZM102.369 71.6668C101.988 71.0105 101.51 70.4931 100.922 70.1492L100.316 71.1848C100.69 71.4034 101.032 71.7532 101.331 72.2688L102.369 71.6668ZM100.932 70.1547C100.351 69.8008 99.7027 69.6276 99.002 69.6276V70.8276C99.4965 70.8276 99.9263 70.9473 100.307 71.1793L100.932 70.1547Z" fill="#1A3E31"/>
</g>
<g filter="url(#filter2_d_1_3)">
<path d="M66.2188 30.0312C68.5521 30.1146 70.3646 30.1562 71.6562 30.1562C72.9479 30.1562 74.7604 30.1146 77.0938 30.0312C77.1354 30.1979 77.1562 30.3125 77.1562 30.375C77.1562 30.4896 77.1354 30.6198 77.0938 30.7656C76.6146 30.8073 76.224 30.8542 75.9219 30.9062C75.6302 30.9479 75.2656 31.0208 74.8281 31.125C74.401 31.2292 74.0729 31.3802 73.8438 31.5781C73.6146 31.7656 73.4948 31.9948 73.4844 32.2656C73.349 35.8073 73.2812 39.1042 73.2812 42.1562C73.2812 44.3854 73.3385 47.2865 73.4531 50.8594C73.4635 51.1302 73.5833 51.3646 73.8125 51.5625C74.0417 51.75 74.3698 51.8958 74.7969 52C75.2344 52.1042 75.599 52.1823 75.8906 52.2344C76.1927 52.276 76.5833 52.3177 77.0625 52.3594C77.1042 52.4844 77.125 52.625 77.125 52.7812C77.125 52.8646 77.1042 52.9688 77.0625 53.0938C75.2917 53.0312 73.4792 53 71.625 53C69.75 53 67.9375 53.0312 66.1875 53.0938C66.1458 52.9688 66.125 52.8646 66.125 52.7812C66.125 52.6042 66.1458 52.4635 66.1875 52.3594C66.5 52.3281 66.75 52.3021 66.9375 52.2812C67.125 52.2604 67.3802 52.224 67.7031 52.1719C68.0365 52.1198 68.3021 52.0625 68.5 52C68.7083 51.9271 68.9219 51.8385 69.1406 51.7344C69.3594 51.6302 69.5208 51.5052 69.625 51.3594C69.7396 51.2135 69.7969 51.0469 69.7969 50.8594C69.9219 47.599 69.9844 44.3125 69.9844 41C69.9844 37.625 69.9323 34.7135 69.8281 32.2656C69.8177 31.9948 69.6979 31.7656 69.4688 31.5781C69.2396 31.3802 68.9062 31.2292 68.4688 31.125C68.0417 31.0208 67.6771 30.9479 67.375 30.9062C67.0833 30.8542 66.6979 30.8073 66.2188 30.7656C66.1771 30.5781 66.1562 30.4479 66.1562 30.375C66.1562 30.2708 66.1771 30.1562 66.2188 30.0312ZM87.75 52.3594C87.8125 52.4844 87.8438 52.6146 87.8438 52.75C87.8438 52.8542 87.8125 52.9688 87.75 53.0938C86.375 53.0312 85.0417 53 83.75 53C82.4792 53 81.1562 53.0312 79.7812 53.0938C79.7396 52.9271 79.7188 52.8125 79.7188 52.75C79.7188 52.6979 79.7396 52.5677 79.7812 52.3594C80.125 52.3177 80.4062 52.276 80.625 52.2344C80.8438 52.1823 81.1146 52.1042 81.4375 52C81.7604 51.8958 82.0052 51.75 82.1719 51.5625C82.3385 51.3646 82.4271 51.1302 82.4375 50.8594C82.4792 49.8281 82.5 48.5781 82.5 47.1094C82.5 46.6198 82.4948 45.7865 82.4844 44.6094C82.474 43.4323 82.4688 42.401 82.4688 41.5156C81.875 41.151 80.875 40.9375 79.4688 40.875C79.4271 40.7083 79.4062 40.5781 79.4062 40.4844C79.4062 40.4219 79.4271 40.3073 79.4688 40.1406C81.4896 39.9323 83.25 39.5052 84.75 38.8594C85.0104 38.9635 85.1927 39.099 85.2969 39.2656V41.7344C86.3073 40.849 87.276 40.1406 88.2031 39.6094C89.1302 39.0677 90.0677 38.7969 91.0156 38.7969C92.2031 38.7969 93.0417 39.1302 93.5312 39.7969C94.0312 40.4635 94.2917 41.5052 94.3125 42.9219L94.4688 50.8594C94.4792 51.1302 94.5573 51.3646 94.7031 51.5625C94.8594 51.75 95.0781 51.8958 95.3594 52C95.651 52.1042 95.8906 52.1823 96.0781 52.2344C96.2656 52.276 96.5104 52.3177 96.8125 52.3594C96.8542 52.5677 96.875 52.7083 96.875 52.7812C96.875 52.8646 96.8542 52.9688 96.8125 53.0938C95.4688 53.0312 94.2292 53 93.0938 53C91.9896 53 90.7656 53.0312 89.4219 53.0938C89.3802 52.9271 89.3594 52.8021 89.3594 52.7188C89.3594 52.6458 89.3802 52.526 89.4219 52.3594C89.6927 52.3177 89.9167 52.276 90.0938 52.2344C90.2812 52.1823 90.4896 52.1042 90.7188 52C90.9583 51.8958 91.1354 51.75 91.25 51.5625C91.375 51.3646 91.4375 51.1302 91.4375 50.8594L91.4688 43.4375C91.4688 41.5521 90.901 40.6094 89.7656 40.6094C88.7031 40.6094 87.2135 41.3177 85.2969 42.7344C85.2969 45.7656 85.3385 48.474 85.4219 50.8594C85.4323 51.1302 85.5104 51.3646 85.6562 51.5625C85.8125 51.75 86.0312 51.8958 86.3125 52C86.5938 52.1042 86.8281 52.1823 87.0156 52.2344C87.2031 52.276 87.4479 52.3177 87.75 52.3594Z" fill="#0A0A0A"/>
<path d="M66.2188 30.0312L66.2366 29.5316L65.8627 29.5182L65.7444 29.8731L66.2188 30.0312ZM77.0938 30.0312L77.5788 29.91L77.4806 29.5171L77.0759 29.5316L77.0938 30.0312ZM77.0938 30.7656L77.1371 31.2637L77.48 31.2339L77.5745 30.903L77.0938 30.7656ZM75.9219 30.9062L75.9926 31.4012L75.9997 31.4002L76.0068 31.399L75.9219 30.9062ZM74.8281 31.125L74.7123 30.6386L74.7096 30.6392L74.8281 31.125ZM73.8438 31.5781L74.1605 31.9652L74.1706 31.9565L73.8438 31.5781ZM73.4844 32.2656L72.9847 32.2464L72.9847 32.2465L73.4844 32.2656ZM73.4531 50.8594L72.9534 50.8754L72.9535 50.8786L73.4531 50.8594ZM73.8125 51.5625L73.4856 51.941L73.4959 51.9495L73.8125 51.5625ZM74.7969 52L74.6784 52.4858L74.6811 52.4864L74.7969 52ZM75.8906 52.2344L75.8027 52.7266L75.8125 52.7283L75.8223 52.7297L75.8906 52.2344ZM77.0625 52.3594L77.5368 52.2013L77.433 51.8897L77.1058 51.8613L77.0625 52.3594ZM77.0625 53.0938L77.0449 53.5934L77.4186 53.6066L77.5368 53.2519L77.0625 53.0938ZM66.1875 53.0938L65.7132 53.2519L65.8315 53.6068L66.2053 53.5934L66.1875 53.0938ZM66.1875 52.3594L66.1377 51.8619L65.8359 51.892L65.7233 52.1737L66.1875 52.3594ZM67.7031 52.1719L67.6259 51.6779L67.6235 51.6783L67.7031 52.1719ZM68.5 52L68.6506 52.4768L68.6579 52.4745L68.6652 52.4719L68.5 52ZM69.625 51.3594L69.2318 51.0505L69.2248 51.0595L69.2181 51.0688L69.625 51.3594ZM69.7969 50.8594L69.2972 50.8402L69.2969 50.8498V50.8594H69.7969ZM69.8281 32.2656L69.3285 32.2848L69.3286 32.2869L69.8281 32.2656ZM69.4688 31.5781L69.1418 31.9567L69.1521 31.9651L69.4688 31.5781ZM68.4688 31.125L68.3503 31.6108L68.3529 31.6114L68.4688 31.125ZM67.375 30.9062L67.2871 31.3985L67.2969 31.4002L67.3067 31.4016L67.375 30.9062ZM66.2188 30.7656L65.7307 30.8741L65.8102 31.232L66.1754 31.2637L66.2188 30.7656ZM66.2009 30.5309C68.5363 30.6143 70.3557 30.6562 71.6562 30.6562V29.6562C70.3735 29.6562 68.5679 29.6148 66.2366 29.5316L66.2009 30.5309ZM71.6562 30.6562C72.9568 30.6562 74.7762 30.6143 77.1116 30.5309L77.0759 29.5316C74.7446 29.6148 72.939 29.6562 71.6562 29.6562V30.6562ZM76.6087 30.1525C76.628 30.2298 76.6409 30.2887 76.6487 30.3316C76.6575 30.38 76.6562 30.3892 76.6562 30.375H77.6562C77.6562 30.2421 77.6189 30.0702 77.5788 29.91L76.6087 30.1525ZM76.6562 30.375C76.6562 30.4309 76.6457 30.5136 76.613 30.6283L77.5745 30.903C77.6251 30.726 77.6562 30.5483 77.6562 30.375H76.6562ZM77.0504 30.2675C76.5642 30.3098 76.1582 30.3581 75.8369 30.4135L76.0068 31.399C76.2897 31.3502 76.665 31.3048 77.1371 31.2637L77.0504 30.2675ZM75.8512 30.4113C75.5387 30.4559 75.1578 30.5325 74.7123 30.6386L74.9439 31.6114C75.3734 31.5091 75.7217 31.4399 75.9926 31.4012L75.8512 30.4113ZM74.7096 30.6392C74.2379 30.7543 73.827 30.932 73.5169 31.1997L74.1706 31.9565C74.3189 31.8285 74.5642 31.704 74.9466 31.6108L74.7096 30.6392ZM73.5271 31.1911C73.1986 31.4599 73.0012 31.8182 72.9847 32.2464L73.984 32.2848C73.9884 32.1714 74.0306 32.0713 74.1604 31.9651L73.5271 31.1911ZM72.9847 32.2465C72.8491 35.7936 72.7812 39.0969 72.7812 42.1562H73.7812C73.7812 39.1115 73.8488 35.821 73.984 32.2847L72.9847 32.2465ZM72.7812 42.1562C72.7812 44.393 72.8387 47.2999 72.9534 50.8754L73.9529 50.8433C73.8384 47.273 73.7812 44.3779 73.7812 42.1562H72.7812ZM72.9535 50.8786C72.9699 51.3049 73.1652 51.6641 73.4857 51.9409L74.1393 51.1841C74.0014 51.065 73.9572 50.9555 73.9528 50.8402L72.9535 50.8786ZM73.4959 51.9495C73.804 52.2016 74.211 52.3718 74.6784 52.4858L74.9154 51.5142C74.5286 51.4199 74.2793 51.2984 74.1291 51.1755L73.4959 51.9495ZM74.6811 52.4864C75.1236 52.5918 75.4982 52.6722 75.8027 52.7266L75.9785 51.7422C75.6997 51.6924 75.3451 51.6166 74.9127 51.5136L74.6811 52.4864ZM75.8223 52.7297C76.136 52.773 76.5358 52.8155 77.0192 52.8575L77.1058 51.8613C76.6308 51.82 76.2494 51.7791 75.9589 51.7391L75.8223 52.7297ZM76.5882 52.5175C76.61 52.583 76.625 52.669 76.625 52.7812H77.625C77.625 52.581 77.5983 52.3857 77.5368 52.2013L76.5882 52.5175ZM76.625 52.7812C76.625 52.7813 76.625 52.7812 76.625 52.7813C76.625 52.7813 76.625 52.7812 76.625 52.7813C76.625 52.7813 76.625 52.7813 76.625 52.7813C76.625 52.7813 76.625 52.7813 76.625 52.7813C76.625 52.7813 76.625 52.7814 76.625 52.7814C76.625 52.7816 76.625 52.7817 76.625 52.782C76.625 52.7825 76.6249 52.7832 76.6249 52.7841C76.6248 52.786 76.6246 52.7888 76.6242 52.7924C76.6233 52.7999 76.6218 52.8102 76.6191 52.8238C76.6136 52.8514 76.6039 52.8883 76.5882 52.9356L77.5368 53.2519C77.5868 53.1019 77.625 52.9402 77.625 52.7812H76.625ZM77.0801 52.5941C75.3032 52.5313 73.4848 52.5 71.625 52.5V53.5C73.4736 53.5 75.2802 53.5312 77.0449 53.5934L77.0801 52.5941ZM71.625 52.5C69.7445 52.5 67.926 52.5313 66.1697 52.5941L66.2053 53.5934C67.949 53.5312 69.7555 53.5 71.625 53.5V52.5ZM66.6618 52.9356C66.6461 52.8883 66.6364 52.8514 66.6309 52.8238C66.6253 52.7957 66.625 52.7825 66.625 52.7812H65.625C65.625 52.9402 65.6632 53.1019 65.7132 53.2519L66.6618 52.9356ZM66.625 52.7812C66.625 52.6352 66.6434 52.566 66.6517 52.5451L65.7233 52.1737C65.6483 52.3611 65.625 52.5731 65.625 52.7812H66.625ZM66.2373 52.8569C66.5506 52.8256 66.8026 52.7993 66.9927 52.7782L66.8823 51.7843C66.6974 51.8049 66.4494 51.8307 66.1377 51.8619L66.2373 52.8569ZM66.9927 52.7782C67.1922 52.756 67.4567 52.7181 67.7827 52.6655L67.6235 51.6783C67.3038 51.7298 67.0578 51.7648 66.8823 51.7843L66.9927 52.7782ZM67.7803 52.6659C68.1252 52.612 68.4185 52.5501 68.6506 52.4768L68.3494 51.5232C68.1856 51.5749 67.9477 51.6276 67.6259 51.6779L67.7803 52.6659ZM68.6652 52.4719C68.892 52.3925 69.1222 52.297 69.3556 52.1858L68.9257 51.2829C68.7216 51.3801 68.5247 51.4616 68.3348 51.5281L68.6652 52.4719ZM69.3556 52.1858C69.6251 52.0575 69.8641 51.8849 70.0319 51.65L69.2181 51.0688C69.1776 51.1255 69.0937 51.2029 68.9257 51.2829L69.3556 52.1858ZM70.0182 51.6683C70.2028 51.4333 70.2969 51.1576 70.2969 50.8594H69.2969C69.2969 50.9362 69.2764 50.9938 69.2318 51.0505L70.0182 51.6683ZM70.2965 50.8785C70.4218 47.6116 70.4844 44.3188 70.4844 41H69.4844C69.4844 44.3062 69.422 47.5863 69.2972 50.8402L70.2965 50.8785ZM70.4844 41C70.4844 37.6203 70.4322 34.7014 70.3277 32.2444L69.3286 32.2869C69.4324 34.7256 69.4844 37.6297 69.4844 41H70.4844ZM70.3278 32.2464C70.3113 31.8182 70.1139 31.4599 69.7854 31.1911L69.1521 31.9651C69.2819 32.0713 69.3241 32.1714 69.3285 32.2848L70.3278 32.2464ZM69.7956 31.1997C69.4834 30.9301 69.0652 30.753 68.5846 30.6386L68.3529 31.6114C68.7473 31.7053 68.9957 31.8303 69.1419 31.9565L69.7956 31.1997ZM68.5872 30.6392C68.1501 30.5326 67.7678 30.4557 67.4433 30.4109L67.3067 31.4016C67.5863 31.4401 67.9332 31.509 68.3503 31.6108L68.5872 30.6392ZM67.4629 30.414C67.1503 30.3582 66.7482 30.3098 66.2621 30.2675L66.1754 31.2637C66.6476 31.3048 67.0164 31.3501 67.2871 31.3985L67.4629 30.414ZM66.7068 30.6572C66.6873 30.5692 66.6739 30.5002 66.6656 30.4483C66.6566 30.3921 66.6562 30.3719 66.6562 30.375H65.6562C65.6562 30.51 65.6899 30.6905 65.7307 30.8741L66.7068 30.6572ZM66.6562 30.375C66.6562 30.3366 66.6641 30.2763 66.6931 30.1894L65.7444 29.8731C65.69 30.0362 65.6562 30.205 65.6562 30.375H66.6562ZM87.75 52.3594L88.1972 52.1358L88.0794 51.9001L87.8183 51.8641L87.75 52.3594ZM87.75 53.0938L87.7273 53.5932L88.0519 53.608L88.1972 53.3174L87.75 53.0938ZM79.7812 53.0938L79.2962 53.215L79.3954 53.6118L79.804 53.5932L79.7812 53.0938ZM79.7812 52.3594L79.7211 51.863L79.3619 51.9065L79.291 52.2613L79.7812 52.3594ZM80.625 52.2344L80.7186 52.7255L80.7297 52.7234L80.7408 52.7208L80.625 52.2344ZM82.1719 51.5625L82.5457 51.8948L82.5543 51.8846L82.1719 51.5625ZM82.4375 50.8594L81.9379 50.8392L81.9379 50.8402L82.4375 50.8594ZM82.4688 41.5156H82.9688V41.2359L82.7304 41.0895L82.4688 41.5156ZM79.4688 40.875L78.9837 40.9963L79.0741 41.358L79.4465 41.3745L79.4688 40.875ZM79.4688 40.1406L79.4175 39.6433L79.0687 39.6792L78.9837 40.0194L79.4688 40.1406ZM84.75 38.8594L84.9357 38.3951L84.7429 38.318L84.5523 38.4001L84.75 38.8594ZM85.2969 39.2656H85.7969V39.1222L85.7209 39.0006L85.2969 39.2656ZM85.2969 41.7344H84.7969V42.8373L85.6264 42.1104L85.2969 41.7344ZM88.2031 39.6094L88.4517 40.0432L88.4554 40.0411L88.2031 39.6094ZM93.5312 39.7969L93.1282 40.0928L93.1312 40.0969L93.5312 39.7969ZM94.3125 42.9219L93.8125 42.9292L93.8126 42.9317L94.3125 42.9219ZM94.4688 50.8594L93.9688 50.8692L93.9691 50.8786L94.4688 50.8594ZM94.7031 51.5625L94.3006 51.8591L94.3095 51.8711L94.319 51.8826L94.7031 51.5625ZM95.3594 52L95.1857 52.4689L95.1912 52.4709L95.3594 52ZM96.0781 52.2344L95.9443 52.7161L95.9569 52.7196L95.9697 52.7225L96.0781 52.2344ZM96.8125 52.3594L97.3028 52.2613L97.2331 51.9126L96.8808 51.8641L96.8125 52.3594ZM96.8125 53.0938L96.7893 53.5932L97.1672 53.6108L97.2868 53.2519L96.8125 53.0938ZM89.4219 53.0938L88.9368 53.215L89.0361 53.6122L89.4451 53.5932L89.4219 53.0938ZM89.4219 52.3594L89.3458 51.8652L89.0174 51.9157L88.9368 52.2381L89.4219 52.3594ZM90.0938 52.2344L90.2083 52.7211L90.218 52.7188L90.2276 52.7161L90.0938 52.2344ZM90.7188 52L90.5194 51.5414L90.5118 51.5448L90.7188 52ZM91.25 51.5625L90.8272 51.2955L90.8234 51.3018L91.25 51.5625ZM91.4375 50.8594L90.9375 50.8573V50.8594H91.4375ZM91.4688 43.4375L91.9688 43.4396V43.4375H91.4688ZM85.2969 42.7344L84.9997 42.3323L84.7969 42.4822V42.7344H85.2969ZM85.4219 50.8594L84.9222 50.8768L84.9222 50.8786L85.4219 50.8594ZM85.6562 51.5625L85.2537 51.8591L85.2626 51.8711L85.2721 51.8826L85.6562 51.5625ZM86.3125 52L86.1388 52.4689L86.3125 52ZM87.0156 52.2344L86.8818 52.7161L86.8944 52.7196L86.9072 52.7225L87.0156 52.2344ZM87.3028 52.583C87.3317 52.6409 87.3438 52.6947 87.3438 52.75H88.3438C88.3438 52.5344 88.2933 52.3279 88.1972 52.1358L87.3028 52.583ZM87.3438 52.75C87.3438 52.7547 87.3419 52.7919 87.3028 52.8701L88.1972 53.3174C88.2831 53.1456 88.3438 52.9536 88.3438 52.75H87.3438ZM87.7727 52.5943C86.3906 52.5314 85.0497 52.5 83.75 52.5V53.5C85.0336 53.5 86.3594 53.5311 87.7273 53.5932L87.7727 52.5943ZM83.75 52.5C82.471 52.5 81.1405 52.5314 79.7585 52.5943L79.804 53.5932C81.172 53.5311 82.4873 53.5 83.75 53.5V52.5ZM80.2663 52.9725C80.247 52.8952 80.2341 52.8363 80.2263 52.7934C80.2175 52.745 80.2188 52.7358 80.2188 52.75H79.2188C79.2188 52.8829 79.2561 53.0548 79.2962 53.215L80.2663 52.9725ZM80.2188 52.75C80.2188 52.765 80.2176 52.7689 80.2194 52.7531C80.2209 52.7401 80.2236 52.7203 80.2281 52.6923C80.2371 52.6362 80.2513 52.5586 80.2715 52.4574L79.291 52.2613C79.2695 52.3685 79.2525 52.4602 79.2407 52.5343C79.2305 52.5978 79.2188 52.6795 79.2188 52.75H80.2188ZM79.8414 52.8557C80.191 52.8134 80.4844 52.7701 80.7186 52.7255L80.5314 51.7432C80.3281 51.7819 80.059 51.822 79.7211 51.863L79.8414 52.8557ZM80.7408 52.7208C80.9769 52.6646 81.2612 52.5822 81.591 52.4759L81.284 51.5241C80.9679 51.6261 80.7106 51.7 80.5092 51.748L80.7408 52.7208ZM81.591 52.4759C81.97 52.3536 82.3023 52.1684 82.5456 51.8947L81.7982 51.2303C81.7081 51.3316 81.5509 51.4381 81.284 51.5241L81.591 52.4759ZM82.5543 51.8846C82.7962 51.5973 82.9227 51.2549 82.9371 50.8786L81.9379 50.8402C81.9315 51.0055 81.8808 51.1319 81.7894 51.2404L82.5543 51.8846ZM82.9371 50.8796C82.9791 49.8394 83 48.5823 83 47.1094H82C82 48.574 81.9792 49.8168 81.9379 50.8392L82.9371 50.8796ZM83 47.1094C83 46.6174 82.9948 45.782 82.9844 44.605L81.9844 44.6138C81.9948 45.7909 82 46.6222 82 47.1094H83ZM82.9844 44.605C82.9739 43.4289 82.9688 42.3992 82.9688 41.5156H81.9688C81.9688 42.4029 81.974 43.4357 81.9844 44.6138L82.9844 44.605ZM82.7304 41.0895C82.0219 40.6545 80.912 40.4386 79.491 40.3755L79.4465 41.3745C80.838 41.4364 81.7281 41.6476 82.2071 41.9417L82.7304 41.0895ZM79.9538 40.7537C79.9153 40.5997 79.9062 40.5165 79.9062 40.4844H78.9062C78.9062 40.6397 78.9389 40.817 78.9837 40.9963L79.9538 40.7537ZM79.9062 40.4844C79.9062 40.4986 79.905 40.4894 79.9138 40.441C79.9216 40.3981 79.9345 40.3391 79.9538 40.2619L78.9837 40.0194C78.9436 40.1796 78.9062 40.3515 78.9062 40.4844H79.9062ZM79.52 40.638C81.5796 40.4257 83.3914 39.9887 84.9477 39.3186L84.5523 38.4001C83.1086 39.0217 81.3996 39.4389 79.4175 39.6433L79.52 40.638ZM84.5643 39.3236C84.7668 39.4046 84.8444 39.4851 84.8729 39.5306L85.7209 39.0006C85.541 38.7128 85.254 38.5225 84.9357 38.3951L84.5643 39.3236ZM84.7969 39.2656V41.7344H85.7969V39.2656H84.7969ZM85.6264 42.1104C86.6179 41.2416 87.5597 40.5543 88.4517 40.0432L87.9545 39.1756C86.9924 39.7269 85.9967 40.4563 84.9673 41.3583L85.6264 42.1104ZM88.4554 40.0411C89.3163 39.5381 90.1676 39.2969 91.0156 39.2969V38.2969C89.9678 38.2969 88.9442 38.5973 87.9509 39.1777L88.4554 40.0411ZM91.0156 39.2969C92.1174 39.2969 92.7692 39.6039 93.1282 40.0928L93.9343 39.5009C93.3141 38.6565 92.2889 38.2969 91.0156 38.2969V39.2969ZM93.1312 40.0969C93.5371 40.638 93.7923 41.5517 93.8126 42.9292L94.8124 42.9145C94.791 41.4587 94.5254 40.2891 93.9313 39.4969L93.1312 40.0969ZM93.8126 42.9317L93.9688 50.8692L94.9687 50.8495L94.8124 42.912L93.8126 42.9317ZM93.9691 50.8786C93.983 51.2388 94.0893 51.5723 94.3006 51.8591L95.1057 51.2659C95.0253 51.1568 94.9754 51.0216 94.9684 50.8402L93.9691 50.8786ZM94.319 51.8826C94.5427 52.151 94.8411 52.3413 95.1857 52.4689L95.533 51.5311C95.3151 51.4504 95.1761 51.349 95.0872 51.2424L94.319 51.8826ZM95.1912 52.4709C95.4884 52.577 95.7405 52.6595 95.9443 52.7161L96.2119 51.7526C96.0407 51.705 95.8137 51.6313 95.5275 51.5291L95.1912 52.4709ZM95.9697 52.7225C96.1758 52.7683 96.4354 52.8121 96.7442 52.8547L96.8808 51.8641C96.5854 51.8233 96.3555 51.7838 96.1866 51.7463L95.9697 52.7225ZM96.3222 52.4574C96.3421 52.557 96.356 52.6353 96.3648 52.6944C96.3743 52.7586 96.375 52.7826 96.375 52.7812H97.375C97.375 52.6509 97.343 52.4624 97.3028 52.2613L96.3222 52.4574ZM96.375 52.7812C96.375 52.7825 96.3747 52.7957 96.3691 52.8238C96.3636 52.8514 96.3539 52.8883 96.3382 52.9356L97.2868 53.2519C97.3368 53.1019 97.375 52.9402 97.375 52.7812H96.375ZM96.8357 52.5943C95.4856 52.5315 94.2382 52.5 93.0938 52.5V53.5C94.2202 53.5 95.4519 53.531 96.7893 53.5932L96.8357 52.5943ZM93.0938 52.5C91.9804 52.5 90.7485 52.5315 89.3986 52.5943L89.4451 53.5932C90.7827 53.531 91.9988 53.5 93.0938 53.5V52.5ZM89.9069 52.9725C89.8883 52.8979 89.8758 52.8385 89.8682 52.7928C89.8644 52.7702 89.8621 52.7525 89.8608 52.7393C89.8601 52.7328 89.8598 52.7278 89.8596 52.7242C89.8595 52.7224 89.8594 52.7211 89.8594 52.7202C89.8594 52.7197 89.8594 52.7193 89.8594 52.7191C89.8594 52.719 89.8594 52.7189 89.8594 52.7188C89.8594 52.7188 89.8594 52.7188 89.8594 52.7188C89.8594 52.7188 89.8594 52.7188 89.8594 52.7188C89.8594 52.7187 89.8594 52.7188 89.8594 52.7188C89.8594 52.7187 89.8594 52.7188 89.8594 52.7188H88.8594C88.8594 52.8666 88.8934 53.0413 88.9368 53.215L89.9069 52.9725ZM89.8594 52.7188C89.8594 52.7236 89.8593 52.7075 89.8676 52.6599C89.8753 52.6157 89.888 52.5566 89.9069 52.4806L88.9368 52.2381C88.8949 52.4055 88.8594 52.5783 88.8594 52.7188H89.8594ZM89.4979 52.8536C89.7759 52.8108 90.0138 52.7668 90.2083 52.7211L89.9792 51.7477C89.8195 51.7852 89.6095 51.8246 89.3458 51.8652L89.4979 52.8536ZM90.2276 52.7161C90.4461 52.6554 90.6793 52.5672 90.9257 52.4552L90.5118 51.5448C90.2998 51.6412 90.1164 51.7092 89.9599 51.7526L90.2276 52.7161ZM90.9181 52.4585C91.2338 52.3213 91.4989 52.114 91.6766 51.8232L90.8234 51.3018C90.7719 51.386 90.6829 51.4704 90.5194 51.5415L90.9181 52.4585ZM91.6727 51.8295C91.8557 51.5398 91.9375 51.2096 91.9375 50.8594H90.9375C90.9375 51.0508 90.8943 51.1894 90.8273 51.2955L91.6727 51.8295ZM91.9375 50.8615L91.9687 43.4396L90.9688 43.4354L90.9375 50.8573L91.9375 50.8615ZM91.9688 43.4375C91.9688 42.4609 91.8246 41.6452 91.4713 41.0585C91.0935 40.4311 90.5019 40.1094 89.7656 40.1094V41.1094C90.1648 41.1094 90.4247 41.259 90.6146 41.5743C90.829 41.9303 90.9688 42.5287 90.9688 43.4375H91.9688ZM89.7656 40.1094C89.1304 40.1094 88.4154 40.3189 87.6368 40.6891C86.8534 41.0616 85.9735 41.6125 84.9997 42.3323L85.5941 43.1365C86.5369 42.4396 87.3602 41.9279 88.0663 41.5922C88.7774 41.254 89.3384 41.1094 89.7656 41.1094V40.1094ZM84.7969 42.7344C84.7969 45.77 84.8386 48.4843 84.9222 50.8768L85.9216 50.8419C85.8385 48.4636 85.7969 45.7613 85.7969 42.7344H84.7969ZM84.9222 50.8786C84.9361 51.2388 85.0424 51.5723 85.2537 51.8591L86.0588 51.2659C85.9784 51.1568 85.9285 51.0216 85.9215 50.8402L84.9222 50.8786ZM85.2721 51.8826C85.4958 52.151 85.7943 52.3413 86.1388 52.4689L86.4862 51.5311C86.2682 51.4504 86.1292 51.349 86.0404 51.2424L85.2721 51.8826ZM86.1388 52.4689C86.427 52.5756 86.6757 52.6589 86.8818 52.7161L87.1494 51.7526C86.9805 51.7057 86.7605 51.6327 86.4862 51.5311L86.1388 52.4689ZM86.9072 52.7225C87.1133 52.7683 87.3729 52.8121 87.6817 52.8547L87.8183 51.8641C87.5229 51.8233 87.293 51.7838 87.1241 51.7463L86.9072 52.7225Z" fill="#1A3E31"/>
</g>
</g>
<defs>
<filter id="filter0_d_1_3" x="0" y="0" width="164" height="117" filterUnits="userSpaceOnUse" color-interpolation-filters="sRGB">
<feFlood flood-opacity="0" result="BackgroundImageFix"/>
<feColorMatrix in="SourceAlpha" type="matrix" values="0 0 0 0 0 0 0 0 0 0 0 0 0 0 0 0 0 0 127 0" result="hardAlpha"/>
<feOffset dy="4"/>
<feGaussianBlur stdDeviation="2"/>
<feComposite in2="hardAlpha" operator="out"/>
<feColorMatrix type="matrix" values="0 0 0 0 0 0 0 0 0 0 0 0 0 0 0 0 0 0 0.25 0"/>
<feBlend mode="normal" in2="BackgroundImageFix" result="effect1_dropShadow_1_3"/>
<feBlend mode="normal" in="SourceGraphic" in2="effect1_dropShadow_1_3" result="shape"/>
</filter>
<filter id="filter1_d_1_3" x="62.3379" y="56.6436" width="50.2227" height="35.1406" filterUnits="userSpaceOnUse" color-interpolation-filters="sRGB">
<feFlood flood-opacity="0" result="BackgroundImageFix"/>
<feColorMatrix in="SourceAlpha" type="matrix" values="0 0 0 0 0 0 0 0 0 0 0 0 0 0 0 0 0 0 127 0" result="hardAlpha"/>
<feOffset dx="2" dy="2"/>
<feGaussianBlur stdDeviation="2"/>
<feComposite in2="hardAlpha" operator="out"/>
<feColorMatrix type="matrix" values="0 0 0 0 0 0 0 0 0 0 0 0 0 0 0 0 0 0 0.25 0"/>
<feBlend mode="normal" in2="BackgroundImageFix" result="effect1_dropShadow_1_3"/>
<feBlend mode="normal" in="SourceGraphic" in2="effect1_dropShadow_1_3" result="shape"/>
</filter>
<filter id="filter2_d_1_3" x="64.125" y="28.0312" width="38.75" height="31.0625" filterUnits="userSpaceOnUse" color-interpolation-filters="sRGB">
<feFlood flood-opacity="0" result="BackgroundImageFix"/>
<feColorMatrix in="SourceAlpha" type="matrix" values="0 0 0 0 0 0 0 0 0 0 0 0 0 0 0 0 0 0 127 0" result="hardAlpha"/>
<feOffset dx="2" dy="2"/>
<feGaussianBlur stdDeviation="2"/>
<feComposite in2="hardAlpha" operator="out"/>
<feColorMatrix type="matrix" values="0 0 0 0 0 0 0 0 0 0 0 0 0 0 0 0 0 0 0.25 0"/>
<feBlend mode="normal" in2="BackgroundImageFix" result="effect1_dropShadow_1_3"/>
<feBlend mode="normal" in="SourceGraphic" in2="effect1_dropShadow_1_3" result="shape"/>
</filter>
</defs>
</svg>
